<?xml version="1.0" encoding="UTF-8"?>
<svg width="99px" height="59px" viewBox="0 0 99 59" version="1.1" xmlns="http://www.w3.org/2000/svg" xmlns:xlink="http://www.w3.org/1999/xlink">
    <title>Artboard</title>
    <g id="Artboard" stroke="none" stroke-width="1" fill="none" fill-rule="evenodd">
        <g id="Logo-2" fill-rule="nonzero">
            <path d="M91.5603233,14.8449247 L90.3142165,14.0322463 C87.6052886,12.1901754 84.6796465,10.8357114 81.5914687,9.91467596 C79.1534337,9.21035472 75.686006,8.61439059 75.686006,5.58039139 L75.4692918,5.85128418 C74.710792,6.71814109 74.2773635,7.85589079 74.2773635,8.99364049 L74.2773635,9.31871184 L73.0854353,9.91467596 C71.2433643,10.8357114 69.7805433,12.352711 68.8595078,14.194782 L68.5344365,14.8991032 L64.0376162,19.450102 L61.3286884,12.5152467 C58.4030463,5.03860582 51.1972982,0.108357114 43.1788717,0.108357114 L2.38241815,0.108357114 L2.38241815,0.108357114 C4.60373899,4.98442726 9.42563058,8.07260502 14.7893077,8.07260502 L14.7893077,8.07260502 C17.0106286,12.9486752 21.8325202,16.0368529 27.1961973,16.0368529 L27.1961973,16.0368529 C29.4175182,20.9129231 34.2394098,24.0011008 39.6030869,24.0011008 L39.6030869,24.0011008 C41.8244078,28.877171 46.6462994,31.9653487 52.0099765,31.9653487 L79.5868621,31.9653487 L79.5868621,24.1636365 C79.6410407,23.0258868 80.6704333,22.2132084 81.808183,22.4299227 L82.8917541,22.6466369 C83.5960754,22.754994 84.3003966,22.4841012 84.7338251,21.9423157 L84.9505393,21.6172443 C85.0588964,21.4547086 84.9505393,21.2379944 84.7880036,21.2379944 C83.8669681,21.1838159 81.808183,20.9129231 81.6998259,19.1792092 C81.6456473,18.3665309 81.9165401,17.7705668 82.4041471,17.3371383 C82.6750399,18.4207094 83.4335397,19.450102 84.3545752,19.8835305 C85.8173962,20.5878517 86.575896,19.1792092 86.575896,19.1792092 C85.3297892,19.6126377 83.5418968,18.6374237 83.5418968,16.7411742 C83.9211467,16.6328171 84.3545752,16.5786385 84.7880036,16.5786385 C87.8761814,16.5786385 89.0139311,19.5042806 89.3390024,20.6962088 C89.393181,20.9129231 89.6640738,20.9129231 89.7724309,20.7503874 L91.7228589,17.987281 C91.9395732,17.6622096 92.0479303,17.2829597 92.0479303,16.9037098 L92.0479303,15.4950674 C91.9937517,15.3325317 91.8312161,15.0074603 91.5603233,14.8449247 Z" id="Shape" fill="#DDB648"></path>
            <path d="M89.2306453,20.804566 C89.2848239,21.0212802 89.5557167,21.0212802 89.6640738,20.8587445 L91.6145018,18.0956381 C91.8312161,17.7705668 91.9395732,17.3913169 91.9395732,17.012067 L91.9395732,15.6034245 C91.9395732,15.2783531 91.7770375,15.0074603 91.5061447,14.8449247 L90.2600379,14.0322463 C87.55111,12.1901754 84.6254679,10.8357114 81.5372902,9.91467596 C79.0992551,9.21035472 75.6318275,8.61439059 75.6318275,5.58039139 L75.6318275,5.58039139 L75.4151132,5.85128418 C74.6566134,6.71814109 74.223185,7.85589079 74.223185,8.99364049 L74.223185,9.31871184 C76.0652559,18.2581738 70.3765074,22.0506728 60.5701886,29.0397066 C60.5701886,29.0397066 60.7869028,29.5273137 61.1661527,30.339992 L79.2617908,26.8725644 L79.4243265,24.3261722 C79.478505,23.1884225 80.5078976,22.3757441 81.6456473,22.5924583 L82.7292184,22.8091726 C83.4335397,22.9175297 84.1378609,22.6466369 84.5712894,22.1048513 L84.7880036,21.77978 C84.8963607,21.6172443 84.7880036,21.4005301 84.6254679,21.4005301 C83.7044325,21.3463515 81.6456473,21.0754587 81.5372902,19.3417449 C81.4831116,18.5290666 81.7540044,17.9331024 82.2416114,17.499674 C82.5125042,18.5832451 83.271004,19.6126377 84.1920395,20.0460662 C85.6548605,20.7503874 86.4133603,19.3417449 86.4133603,19.3417449 C85.1672535,19.7751734 83.3793611,18.7999593 83.3793611,16.9037098 C83.758611,16.7953527 84.1920395,16.7411742 84.6254679,16.7411742 C87.7678243,16.6869956 88.905574,19.6126377 89.2306453,20.804566 Z" id="Shape" fill="#BE9521"></path>
            <path d="M54.1229403,16.14521 L27.1420188,16.14521 L27.1420188,16.14521 C29.3633396,21.0212802 34.1852312,24.1094579 39.5489084,24.1094579 L57.2652966,24.1094579 L54.1229403,16.14521 Z" id="Shape" fill="#BE9521"></path>
            <path d="M54.1229403,16.14521 C52.2266908,11.3233185 47.6215134,8.18096213 42.4203719,8.18096213 L14.7351292,8.18096213 L14.7351292,8.18096213 C16.95645,13.0570323 21.7783416,16.14521 27.1420188,16.14521 L54.1229403,16.14521 L54.1229403,16.14521 Z" id="Shape" fill="#D0A52B"></path>
            <path d="M57.211118,24.1094579 L39.4947298,24.1094579 L39.4947298,24.1094579 C41.7160507,28.9855281 46.5379423,32.0737059 51.9016194,32.0737059 L60.3534743,32.0737059 L57.211118,24.1094579 Z" id="Shape" fill="#AB820D"></path>
            <path d="M98.8202499,40.4172037 C98.2784644,39.8212395 96.978179,38.5209542 94.7026796,37.0039546 C93.9983583,35.486955 92.8606086,34.2408481 91.4519662,33.3739912 L93.7274656,30.6108848 C93.7274656,30.6108848 81.9165401,17.5538525 60.5701886,28.9855281 C46.8630136,29.4189565 34.0768741,34.5659195 23.9996625,40.254668 C23.8371268,40.254668 23.6204126,40.2004894 23.4578769,40.2004894 C22.8077342,40.1463109 22.0492344,40.0379538 21.1281989,39.8754181 C20.261342,39.7128824 19.2319494,39.5503467 18.2025568,39.2252754 C17.7149498,39.0627397 17.1731643,38.9002041 16.6855572,38.6834898 C16.0895931,38.412597 15.6561647,38.0333471 15.5478075,37.8166329 C15.4394504,37.5999187 15.8728789,37.2206688 15.9270574,37.1123117 C16.1437717,36.8955974 16.3604859,36.7330618 16.5772001,36.5163475 C17.0648071,36.1370976 17.6607713,35.7578477 18.310914,35.3785978 C18.9068781,34.9993479 19.6111993,34.6742766 20.261342,34.2950267 C20.9114847,33.9157768 21.6158059,33.5365269 22.3201272,33.0489199 C22.6451985,32.8322057 23.0244484,32.5613129 23.3495198,32.2362415 C23.5120554,32.0737059 23.7287697,31.8569916 23.8913053,31.6402774 C24.053841,31.4235632 24.2163767,31.0984918 24.3247338,30.7192419 C24.3247338,30.6108848 24.3789124,30.5025277 24.3789124,30.4483491 C24.3789124,30.339992 24.3789124,30.2316349 24.3789124,30.1232778 C24.3789124,30.0149207 24.3789124,29.9065636 24.3247338,29.7982065 L24.3247338,29.7440279 L24.3247338,29.6898493 C24.3247338,29.6898493 24.3247338,29.6356708 24.3247338,29.6356708 L24.3247338,29.5814922 L24.2705552,29.4731351 C24.2163767,29.4189565 24.2163767,29.364778 24.2163767,29.3105994 C24.2163767,29.2564209 24.1621981,29.2022423 24.1621981,29.1480638 C24.1080196,29.0397066 24.053841,28.9855281 23.9996625,28.9313495 C23.8913053,28.7688139 23.7829482,28.6604567 23.6745911,28.6062782 C23.2411627,28.2270283 22.8077342,28.0644926 22.3743057,27.8477784 C21.5616274,27.522707 20.748949,27.3601714 19.9362707,27.1976357 C18.310914,26.9809215 16.7939144,26.9267429 15.2769148,27.0351 C13.7599152,27.1434571 12.3512727,27.3059928 10.9968087,27.6310642 C9.64234481,27.9019569 8.39623799,28.2812068 7.31266685,28.6604567 C5.03716745,29.4189565 3.24927506,30.2858135 2.0573468,30.9359562 C1.46138268,31.2610275 0.97377566,31.5319203 0.648704317,31.7486345 C0.323632974,31.9653487 0.161097303,32.0195273 0.161097303,32.0195273 C0.161097303,32.0195273 1.08213277,35.1618836 3.03256083,33.9699554 C5.25388168,32.66967 4.82045322,31.5319203 7.85445242,30.339992 C8.88384501,29.9065636 10.0757733,29.6898493 11.3760586,29.4189565 C12.6221655,29.2022423 13.9766294,28.9855281 15.3852719,28.9855281 C16.7939144,28.9313495 18.2025568,28.9855281 19.6111993,29.2564209 C20.3155206,29.364778 20.9656633,29.5814922 21.5616274,29.852385 C21.6699845,29.9065636 21.7783416,29.9607421 21.8866987,30.0149207 C22.103413,30.1232778 22.1575915,30.4483491 21.9408773,30.6108848 C21.9408773,30.6108848 21.9408773,30.6108848 21.9408773,30.6108848 C21.7241631,30.7734205 21.4532703,30.9901347 21.1823775,31.1526704 C20.5864134,31.5319203 19.9362707,31.8569916 19.286128,32.182063 C18.6359853,32.5071343 17.9316641,32.8322057 17.2815214,33.2114556 C16.5772001,33.5907055 15.9270574,33.9699554 15.2769148,34.4033838 C14.9518434,34.620098 14.6267721,34.8909908 14.3017007,35.1618836 C13.9766294,35.4327764 13.651558,35.8120263 13.3806653,36.2454548 C13.2181296,36.462169 13.1097725,36.7330618 13.0555939,37.0039546 L13.0014154,37.2206688 C13.0014154,37.2748473 12.9472368,37.3832045 12.9472368,37.4915616 C12.9472368,37.5999187 12.9472368,37.5999187 12.9472368,37.6540972 L12.9472368,37.7082758 L12.9472368,37.7082758 C12.9472368,37.7624544 12.9472368,37.6540972 12.9472368,37.8166329 L12.9472368,37.92499 C12.9472368,38.2500614 13.0555939,38.6293113 13.163951,38.9002041 C13.2723081,39.1710968 13.4348438,39.4419896 13.5973795,39.6587039 C13.9224508,40.0921323 14.3017007,40.3630251 14.6267721,40.6339179 C14.9518434,40.8506321 15.2769148,41.0673463 15.6019861,41.229882 C16.2521288,41.5549534 16.8480929,41.7716676 17.444057,41.9883818 C18.310914,42.2592746 19.1235923,42.5301674 19.8279136,42.6927031 C12.6221655,47.1895233 7.25848829,51.5779864 4.65791755,53.8534858 C3.73688208,54.6661642 3.79106063,56.1289852 4.82045322,56.8333065 L7.04177406,58.4586632 L16.5772001,58.4586632 L15.1685576,56.8333065 C14.3017007,55.8039139 13.0014154,55.3163069 11.70113,55.5330211 L10.4550232,55.6955568 L9.85905904,54.8286999 C9.5339877,54.3410929 9.75070192,53.6367716 10.3466661,53.4200574 L12.7847011,52.5532005 L18.6359853,53.3117003 C19.5028422,53.4200574 20.3155206,53.2575217 21.0740204,52.8240933 C23.8371268,51.144558 31.6930176,47.0269876 40.9033723,47.0269876 C58.5655819,47.0269876 74.9275062,58.5128418 74.9275062,58.5128418 L91.9937517,58.5128418 L88.5805026,54.6661642 C87.8220028,53.7993073 86.6300746,53.4742359 85.5465034,53.8534858 L83.9753253,54.3952714 C82.8375756,54.7745213 81.5372902,54.3952714 80.7787904,53.4200574 L78.2865768,50.169344 L78.8825409,48.9774157 C80.453719,45.9434165 84.6254679,45.509988 86.7926102,48.1647373 L87.8220028,49.4650227 C88.2012527,49.8984512 88.8513954,49.9526297 89.2306453,49.5192013 L91.7228589,47.0269876 C91.9937517,46.7560948 91.8312161,46.3226664 91.5061447,46.2143093 C90.8018235,46.0517736 90.0433237,45.6183451 89.393181,45.022381 C88.0387171,43.6679171 87.7136457,41.8258461 88.6346812,40.9048107 C89.5557167,39.9837752 91.3977876,40.3630251 92.7522515,41.6633105 C93.5107513,42.4218103 93.9441798,43.3428457 94.0525369,44.2097027 C94.0525369,44.4264169 94.3234297,44.4805954 94.4317868,44.3722383 L95.4611794,43.3428457 C95.6237151,43.1803101 95.8946078,43.071953 96.1113221,43.071953 L96.5989291,43.071953 C96.8698219,43.071953 97.1407147,42.9635958 97.3032503,42.7468816 L98.8202499,41.0131678 C98.9827856,40.8506321 98.9827856,40.5797393 98.8202499,40.4172037 Z" id="Shape" fill="#D0A52B"></path>
            <path d="M40.8491937,47.0811662 C34.456124,47.0811662 28.7673755,49.0315942 24.9206979,50.8194866 C24.1621981,52.1739506 23.6745911,53.3117003 23.3495198,54.1785572 C23.0244484,54.9912355 23.2953412,55.912271 23.9996625,56.399878 L26.9794831,58.5670203 L36.5690877,58.5670203 L35.1604452,56.9416636 C34.2935883,55.912271 32.993303,55.424664 31.6930176,55.6413782 L30.4469108,55.8039139 L29.8509466,54.937057 C29.5258753,54.44945 29.7425895,53.7451287 30.3385537,53.5284145 L32.7765887,52.6615576 L38.6278729,53.4200574 C39.4947298,53.5284145 40.3074082,53.3658788 41.065908,52.9324504 C42.8538004,51.8488792 46.7004779,49.7900941 51.6307266,48.4356301 C48.163299,47.5687732 44.5333356,47.0811662 40.8491937,47.0811662 Z" id="Shape" fill="#8A6600"></path>
            <path d="M64.2543304,36.3538119 C35.1604452,36.3538119 19.773735,49.9526297 16.5772001,53.094986 L18.5276282,53.3658788 C19.3944851,53.4742359 20.2071635,53.3117003 20.9656633,52.8782718 C23.7287697,51.1987365 31.5846605,47.0811662 40.7950152,47.0811662 C46.3754066,47.0811662 51.7932623,48.2189159 56.6693324,49.7900941 C56.5609753,50.4944153 56.235904,51.144558 55.6399399,51.6863436 L51.8474409,54.937057 C51.6307266,55.0995927 51.4140124,55.2079498 51.1972982,55.2621283 L50.601334,55.424664 C50.1679056,55.5330211 50.0595485,56.0206281 50.3846198,56.2915209 L52.8768334,58.5670203 L53.6353332,58.1335919 C55.6399399,56.9958422 57.7529036,56.0748067 59.9742244,55.5330211 L62.2497238,54.937057 C63.3874735,54.6119856 64.3626876,54.0160215 65.1753659,53.2033432 C71.0808287,55.9664496 74.8733277,58.6211989 74.8733277,58.6211989 L91.9395732,58.6211989 L88.5263241,54.7745213 C87.7678243,53.9076644 86.575896,53.5825931 85.4923249,53.961843 L83.9211467,54.5036285 C82.783397,54.8828784 81.4831116,54.5036285 80.7246118,53.5284145 L78.2323982,50.2777011 L78.8283623,49.0857728 C80.3995405,46.0517736 84.5712894,45.6183451 86.7384317,48.2730944 L87.7678243,49.5733798 C88.1470742,50.0068083 88.7972169,50.0609868 89.1764668,49.6275584 L91.6686804,47.1353447 C91.9395732,46.864452 91.7770375,46.4310235 91.4519662,46.3226664 C90.7476449,46.1601307 89.9891451,45.7267023 89.3390024,45.1307381 C87.9845385,43.7762742 87.6594672,41.9342033 88.5805026,41.0131678 C89.5015381,40.0921323 91.343609,40.4713822 92.698073,41.7716676 C93.4565728,42.5301674 93.8900012,43.4512029 93.9983583,44.3180598 C93.9983583,44.534774 94.2692511,44.5889526 94.3776082,44.4805954 L95.4070008,43.4512029 C95.5695365,43.2886672 95.8404293,43.1803101 96.0571435,43.1803101 L96.5447505,43.1803101 C96.8156433,43.1803101 97.0865361,43.071953 97.2490718,42.8552387 L98.4951786,41.3924177 C96.490572,39.7128824 89.2848239,36.3538119 64.2543304,36.3538119 Z" id="Shape" fill="#BE9521"></path>
            <path d="M64.7419375,43.4512029 C66.15058,44.6431311 67.0716154,46.4852021 67.0716154,48.4898087 C67.0716154,50.2777011 66.3672942,51.9572363 65.1753659,53.1491646 C71.0808287,55.912271 74.8733277,58.5670203 74.8733277,58.5670203 L80.2370048,58.5670203 C77.7989697,54.3410929 71.893507,45.1849167 64.7419375,43.4512029 Z" id="Shape" fill="#AB820D"></path>
            <path d="M20.9656633,52.8782718 C23.7287697,51.1987365 31.5846605,47.0811662 40.7950152,47.0811662 C46.3754066,47.0811662 51.7932623,48.2189159 56.6693324,49.7900941 C56.5609753,50.4944153 56.235904,51.144558 55.6399399,51.6863436 L51.8474409,54.937057 C51.6307266,55.0995927 51.4140124,55.2079498 51.1972982,55.2621283 L50.601334,55.424664 C50.1679056,55.5330211 50.0595485,56.0206281 50.3846198,56.2915209 L52.8768334,58.5670203 L53.6353332,58.1335919 C55.6399399,56.9958422 57.7529036,56.0748067 59.9742244,55.5330211 L62.2497238,54.937057 C62.3039024,54.937057 62.3039024,54.937057 62.3580809,54.8828784 C63.6041878,53.094986 64.4168661,49.7359155 62.5747952,47.1353447 C58.6739391,41.5549534 36.9483376,39.0085612 16.6313787,53.1491646 L18.5818067,53.4200574 C19.3944851,53.4742359 20.261342,53.3117003 20.9656633,52.8782718 Z" id="Shape" fill="#AB820D"></path>
        </g>
    </g>
</svg>