<?xml version="1.0" encoding="UTF-8"?>
<svg width="72px" height="74px" viewBox="0 0 72 74" version="1.1" xmlns="http://www.w3.org/2000/svg" xmlns:xlink="http://www.w3.org/1999/xlink">
    <title>Artboard</title>
    <g id="Artboard" stroke="none" stroke-width="1" fill="none" fill-rule="evenodd">
        <g id="new-2" fill="#FFFFFF" fill-rule="nonzero">
            <polygon id="XMLID_390_" points="67.4021949 41.4376487 71.262 36.7695784 67.4021949 32.101508 69.9075863 26.5783145 64.9367409 23.0959689 65.8653952 17.0925164 60.1259338 15.0887223 59.3653917 9.04792764 53.2774506 8.72785116 50.814736 3.13631695 44.8784708 4.61342664 40.8532928 0.000144178594 35.631 3.19499763 30.4089955 0 26.3838175 4.61328246 20.4475523 3.13617277 17.9846936 8.7275628 11.8967525 9.04778346 11.1362104 15.0885782 5.39660476 17.0923723 6.32525908 23.0959689 1.35441371 26.5783145 3.85980513 32.1016522 0 36.7695784 3.85980513 41.4377929 1.35441371 46.9609864 6.32525908 50.443332 5.39660476 56.4467844 11.1360662 58.4505785 11.8966083 64.4913732 17.9845494 64.8115939 20.4474081 70.4029839 26.3836734 68.9258742 30.4088513 73.5391567 35.6311442 70.3441591 40.8532928 73.5391567 44.8784708 68.9258742 50.814736 70.4029839 53.2775948 64.8117381 59.3655359 64.4915174 60.126078 58.4507227 65.8656836 56.4469286 64.9370293 50.4431878 69.9078746 46.9608422"></polygon>
        </g>
    </g>
</svg>