<?xml version="1.0" encoding="UTF-8"?>
<svg width="120px" height="50px" viewBox="0 0 120 50" version="1.1" xmlns="http://www.w3.org/2000/svg" xmlns:xlink="http://www.w3.org/1999/xlink">
    <title>logo-brand-xiaomi</title>
    <g id="logo-brand-xiaomi" stroke="none" stroke-width="1" fill="none" fill-rule="evenodd">
        <g id="Group-9" transform="translate(9.000000, 13.000000)">
            <path d="M17.2797497,17.0290749 L19.6815617,17.0290749 L19.6815617,7.54560021 L17.2797497,7.54560021 L17.2797497,17.0290749 Z M15.5095785,17.0290749 L13.1077013,17.0290749 L13.1077013,11.0376458 C13.1077013,10.1975004 12.4266557,9.51645475 11.5865103,9.51645475 L7.2180804,9.51645475 L7.2180804,17.0290749 L4.81620327,17.0290749 L4.81620327,7.54560021 L12.5630082,7.54560021 C14.1903091,7.54560021 15.5095785,8.86480438 15.5095785,10.4921053 L15.5095785,17.0290749 Z M8.96191971,17.0290749 L11.3637968,17.0290749 L11.3637968,11.2140828 L8.96191971,11.2140828 L8.96191971,17.0290749 Z M24.4857722,9.74803244 C24.3283671,6.45667016 23.56259,4.2608861 21.9801316,2.58157307 C20.3007533,0.999114665 18.1050345,0.233337497 14.8136722,0.0758672757 C13.8849498,0.0314810087 13.1340333,0.00397586239 12.2808523,0 C11.4277365,0.00397586239 10.6767548,0.0314810087 9.74803244,0.0758672757 C6.45667016,0.233337497 4.26095127,0.999114665 2.58157307,2.58157307 C0.999114665,4.2608861 0.233337497,6.45667016 0.0759324538,9.74803244 C0.0314810087,10.6767548 0.00397586239,11.4276714 0,12.2808523 C0.00397586239,13.1340333 0.0314810087,13.8849498 0.0759324538,14.8136722 C0.233337497,18.1050345 0.999114665,20.3008185 2.58157307,21.9801316 C4.26095127,23.56259 6.45667016,24.3283671 9.74803244,24.4858373 C10.6767548,24.5302236 11.4277365,24.5577288 12.2808523,24.5617046 C13.1340333,24.5577288 13.8849498,24.5302236 14.8136722,24.4858373 C18.1050345,24.3283671 20.3007533,23.56259 21.9801316,21.9801316 C23.56259,20.3008185 24.3283671,18.1050345 24.4857722,14.8136722 C24.5302236,13.8849498 24.5577288,13.1340333 24.5617046,12.2808523 C24.5577288,11.4276714 24.5302236,10.6767548 24.4857722,9.74803244 L24.4857722,9.74803244 Z" id="Fill-1" fill="#FC6902"></path>
            <g id="Group" transform="translate(31.410920, 6.715248)" fill="#8B8B8D">
                <path d="M63.4103429,1.2806269 C62.7906622,0.696303968 61.9737568,0.410574537 60.7439514,0.346695227 C60.3966215,0.328685525 60.1155966,0.317218123 59.7962001,0.314204255 C59.4766565,0.314204255 59.1953376,0.323025333 58.8473461,0.337727131 C57.8144713,0.381538487 57.0690902,0.584202763 56.4844732,0.989457808 C56.4291944,1.02775599 56.3550239,1.02775599 56.2997451,0.989457808 C55.7150546,0.584202763 54.969747,0.381538487 53.9369457,0.337727131 C53.5889542,0.323025333 53.3074883,0.314204255 52.9880182,0.314204255 C52.6686217,0.317218123 52.3876703,0.328685525 52.0403404,0.346695227 C50.810535,0.410574537 49.9935561,0.696303968 49.3739489,1.2806269 C48.7924928,1.89869047 48.5180838,2.70243773 48.4751545,3.9013693 C48.4630255,4.23877555 48.4564097,4.51119986 48.458909,4.82037866 L48.458909,11.0373277 C48.458909,11.0833443 48.4962516,11.1206869 48.5422682,11.1206869 L50.9539511,11.1206869 C51.0000412,11.1206869 51.0373103,11.0833443 51.0373103,11.0373277 L51.0376043,4.25612367 C51.0364281,4.12174925 51.0393685,4.00332627 51.0448082,3.85667584 C51.0640675,3.33564414 51.1869745,2.98632944 51.4474169,2.71765409 C51.7249868,2.46375405 52.0909881,2.33952386 52.6418644,2.31173746 C52.7974094,2.30394551 52.9232568,2.2989469 53.0663053,2.29762374 C53.2094273,2.29762374 53.3354952,2.30144621 53.4914078,2.307915 C54.0444159,2.33062927 54.4135045,2.45184559 54.695485,2.70434896 C54.9607789,2.97199518 55.08817,3.32204498 55.112575,3.84550247 C55.1194848,3.99281448 55.1236748,4.11175202 55.1237483,4.24678803 L55.1237483,11.0373277 C55.1237483,11.0833443 55.1610909,11.1206869 55.2071075,11.1206869 L57.5771108,11.1206869 C57.6231274,11.1206869 57.66047,11.0833443 57.66047,11.0373277 L57.66047,4.24678803 C57.660617,4.11175202 57.664807,3.99281448 57.6716433,3.84550247 C57.6961218,3.32204498 57.8235129,2.97199518 58.0887333,2.70434896 C58.3707138,2.45184559 58.7398759,2.33062927 59.2928105,2.307915 C59.4487231,2.30144621 59.574791,2.29762374 59.717913,2.29762374 C59.8609615,2.2989469 59.9868824,2.30394551 60.1424274,2.31173746 C60.6933037,2.33952386 61.059305,2.46375405 61.3368014,2.71765409 C61.5973173,2.98632944 61.7202243,3.33564414 61.7394836,3.85667584 C61.7448498,4.00332627 61.7478637,4.12174925 61.7466875,4.25612367 L61.7466875,11.0373277 C61.7466875,11.0833443 61.7840301,11.1206869 61.8300467,11.1206869 L64.2419501,11.1206869 C64.2879667,11.1206869 64.3253093,11.0833443 64.3253093,11.0373277 L64.3253093,4.82037866 C64.3278086,4.51119986 64.3212663,4.23877555 64.3091373,3.9013693 C64.2662081,2.70243773 63.991799,1.89869047 63.4103429,1.2806269" id="Fill-3"></path>
                <path d="M42.8767836,6.51986233 C42.8337808,7.45055961 42.6375853,8.06928475 42.2354912,8.54135947 C41.8100947,8.98491269 41.2553959,9.19911788 40.4251119,9.24314976 C40.1911328,9.25557278 40.0019206,9.26321772 39.7870538,9.26432035 C39.5721871,9.26321772 39.383122,9.25557278 39.1493634,9.24314976 C38.3214317,9.1992649 37.768056,8.9857948 37.3419244,8.5440793 C36.9393892,8.0745774 36.7399593,7.45908665 36.6898997,6.53302044 C36.6757125,6.27103441 36.6663768,6.05888747 36.6626279,5.81763098 C36.6608637,5.57615396 36.6654212,5.36334544 36.6736542,5.09981572 C36.7030578,4.16323772 36.8905792,3.53532395 37.2881158,3.05259044 C37.7116746,2.59617314 38.2701224,2.37285284 39.1108447,2.32301374 C39.3482787,2.30897353 39.5402842,2.30000543 39.7586794,2.29765314 C39.9770746,2.29765314 40.1693741,2.30448948 40.4073227,2.31603039 C41.2512058,2.35690138 41.8145052,2.57485553 42.2447533,3.02862651 C42.6495673,3.50966932 42.8439986,4.13883274 42.8813411,5.07967426 C42.8918529,5.34438012 42.8981747,5.55821776 42.8983952,5.80094444 C42.896631,6.04337708 42.8889126,6.25647963 42.8767836,6.51986233 M44.1195265,1.4613414 C43.3618694,0.749186334 42.3700126,0.407222527 40.8843225,0.343049181 C40.4653213,0.32496597 40.1267389,0.314233286 39.7421399,0.314233286 C39.3577614,0.317835599 39.0195465,0.331949324 38.6015009,0.354075529 C37.121324,0.432289091 36.1381413,0.782632923 35.3923191,1.498978 C34.69244,2.25670864 34.3622376,3.2420231 34.3105608,4.7119088 C34.296006,5.12547036 34.2879936,5.45949519 34.2910074,5.83850753 C34.2976232,6.21715232 34.3140893,6.55000101 34.3390088,6.96121029 C34.4272196,8.41462997 34.778225,9.38053806 35.4871457,10.1173186 C36.2373049,10.8106554 37.21174,11.1457094 38.6694232,11.2145873 C39.0809265,11.2339937 39.4139222,11.2460491 39.792126,11.2478133 C40.1704767,11.2460491 40.5035459,11.2339937 40.9156373,11.2145138 C42.377437,11.1454888 43.3540774,10.8092587 44.1032075,10.1130551 C44.8110991,9.37223155 45.1565178,8.40117783 45.2321585,6.94055426 C45.2535497,6.52728674 45.2671488,6.19274734 45.2703097,5.81226482 C45.2698687,5.43134125 45.2586953,5.09577273 45.240171,4.68029993 C45.1745275,3.20372491 44.8321961,2.2163522 44.1195265,1.4613414" id="Fill-4"></path>
                <path d="M11.918018,0.405340697 L8.91252958,0.405340697 C8.86298452,0.405340697 8.81608579,0.427393393 8.78432991,0.465471048 L5.99245859,3.95317844 C5.95915902,3.99500505 5.89542672,3.99500505 5.86205364,3.95317844 L3.2172003,0.465471048 C3.18544442,0.427393393 3.13847217,0.405340697 3.08900062,0.405340697 L0.0835121883,0.405340697 C0.012870052,0.405340697 -0.0257221661,0.487670762 0.0194123518,0.541993903 L4.25228034,5.64961884 C4.27793498,5.68049261 4.27793498,5.72533309 4.25228034,5.75620687 L0.0929213387,10.9224185 C0.0477868207,10.9767416 0.0863790388,11.0590717 0.157021175,11.0590717 L3.16250961,11.0590717 C3.21198116,11.0590717 3.2589534,11.0369455 3.29070928,10.9988678 L5.93497456,7.60223805 C5.96834764,7.55938231 6.03310906,7.55938231 6.06648214,7.60223805 L8.71082092,10.9988678 C8.7425768,11.0369455 8.78947554,11.0590717 8.83902059,11.0590717 L11.844509,11.0590717 C11.9151512,11.0590717 11.9537434,10.9767416 11.9086089,10.9224185 L7.74924986,5.75620687 C7.72352172,5.72533309 7.72352172,5.68049261 7.74924986,5.64961884 L11.9821179,0.541993903 C12.0272524,0.487670762 11.9886602,0.405340697 11.918018,0.405340697" id="Fill-5"></path>
                <path d="M17.4153214,0.405340697 L15.0768536,0.405340697 C15.0308369,0.405340697 14.9935679,0.442683262 14.9935679,0.488699888 L14.9935679,10.975639 C14.9935679,11.0217291 15.0308369,11.0590717 15.0768536,11.0590717 L17.4153214,11.0590717 C17.4613381,11.0590717 17.4986806,11.0217291 17.4986806,10.975639 L17.4986806,0.488699888 C17.4986806,0.442683262 17.4613381,0.405340697 17.4153214,0.405340697" id="Fill-6"></path>
                <path d="M70.5057538,0.405340697 L68.1672859,0.405340697 C68.1212693,0.405340697 68.0840002,0.442683262 68.0840002,0.488699888 L68.0840002,10.975639 C68.0840002,11.0217291 68.1212693,11.0590717 68.1672859,11.0590717 L70.5057538,11.0590717 C70.5517704,11.0590717 70.589113,11.0217291 70.589113,10.975639 L70.589113,0.488699888 C70.589113,0.442683262 70.5517704,0.405340697 70.5057538,0.405340697" id="Fill-7"></path>
                <path d="M28.8703077,7.63728714 C28.8703077,8.53777223 28.2992899,9.17627129 27.2550948,9.17627129 L24.774681,9.17627129 C24.5180611,9.17627129 23.2376081,9.10908407 23.2376081,7.78430511 C23.2376081,6.30273148 24.463885,6.25678837 24.774681,6.22767881 C26.3069023,6.08418927 28.3744896,6.24385078 28.7941524,6.27920861 C28.8373757,6.28281055 28.8703077,6.31890346 28.8703077,6.36220025 L28.8703077,7.63728714 Z M26.6782697,0.01896276 C26.6782697,0.01896276 23.9189629,-0.177894307 21.8870275,0.696936146 C21.8260885,0.723178854 21.7872758,0.783970786 21.7872758,0.850202383 L21.7872758,2.95932223 C21.7872758,3.0179089 21.8458624,3.05753024 21.9005531,3.03658018 C24.0492943,2.213059 26.3654155,2.31104648 26.3654155,2.31104648 C28.0505355,2.31104648 28.7153508,2.65021694 28.8454617,4.15751872 C28.8499457,4.20853396 28.8073105,4.25153671 28.7560748,4.24749372 C28.2969376,4.21073923 26.504274,4.08555342 24.6277365,4.19861024 C22.7628871,4.31093198 20.7985064,5.34086639 20.7985064,7.56377815 C20.7985064,9.99721965 22.7595056,11.247828 24.6277365,11.247828 L27.4756952,11.247828 C29.5103505,11.247828 31.2455301,9.93922106 31.4695855,7.67249794 C31.5375078,6.98562997 31.4565009,4.80256008 31.4565009,4.80256008 C31.4565009,1.8179482 29.4578651,0.01896276 26.6782697,0.01896276 L26.6782697,0.01896276 Z" id="Fill-8"></path>
            </g>
        </g>
    </g>
</svg>