<?xml version="1.0" encoding="UTF-8"?>
<svg width="120px" height="50px" viewBox="0 0 120 50" version="1.1" xmlns="http://www.w3.org/2000/svg" xmlns:xlink="http://www.w3.org/1999/xlink">
    <title>logo-brand-qualcomm</title>
    <defs>
        <polygon id="path-1" points="0 0 90.0562354 0 90.0562354 16.5490585 0 16.5490585"></polygon>
    </defs>
    <g id="logo-brand-qualcomm" stroke="none" stroke-width="1" fill="none" fill-rule="evenodd">
        <g id="Group-3" transform="translate(15.000000, 16.000000)">
            <mask id="mask-2" fill="white">
                <use xlink:href="#path-1"></use>
            </mask>
            <g id="Clip-2"></g>
            <path d="M39.6306314,0.255974587 C39.8862756,0.255974587 40.0634507,0.472384208 40.0634507,0.708617612 L40.0634507,13.7353204 C40.0634507,13.9711408 39.8862756,14.1875505 39.6306314,14.1875505 L38.4692882,14.1875505 C38.2334678,14.1875505 38.0170582,13.9711408 38.0170582,13.7353204 L38.0170582,0.708617612 C38.0170582,0.472384208 38.2334678,0.255974587 38.4692882,0.255974587 L39.6306314,0.255974587 L39.6306314,0.255974587 Z M54.8809018,12.5347426 C53.1884464,12.5347426 51.9882816,11.1768136 51.9882816,9.46536037 C51.9882816,7.7332574 53.1884464,6.39556511 54.8809018,6.39556511 C56.5729442,6.39556511 57.773522,7.7332574 57.773522,9.46536037 C57.773522,11.1768136 56.5729442,12.5347426 54.8809018,12.5347426 L54.8809018,12.5347426 Z M54.8809018,4.48670009 C52.1262221,4.48670009 49.9220653,6.6512093 49.9220653,9.46536037 C49.9220653,12.2989222 52.1262221,14.4436077 54.8809018,14.4436077 C57.6359945,14.4436077 59.8397383,12.2989222 59.8397383,9.46536037 C59.8397383,6.6512093 57.6359945,4.48670009 54.8809018,4.48670009 L54.8809018,4.48670009 Z M49.4107769,12.8498582 C49.6664211,13.1645607 49.4495985,13.4007941 49.312071,13.499087 C48.5050779,14.1090813 47.4428536,14.4436077 46.2815103,14.4436077 C43.3496555,14.4436077 41.401556,12.2989222 41.401556,9.46494737 C41.401556,6.63179851 43.3496555,4.46687631 46.2815103,4.46687631 C47.4428536,4.46687631 48.5050779,4.80140263 49.312071,5.41139692 C49.4495985,5.51010284 49.6465973,5.72651246 49.4107769,6.06103878 L48.859841,6.82838435 C48.6430184,7.12326311 48.3869612,7.04479397 48.1709646,6.90685349 C47.6588502,6.59215095 47.0492689,6.33650676 46.3405687,6.33650676 C44.6291155,6.33650676 43.487596,7.71384662 43.487596,9.46494737 C43.487596,11.2164611 44.6291155,12.5743902 46.3405687,12.5743902 C47.0492689,12.5743902 47.6200286,12.2989222 48.131317,12.0036305 C48.3477266,11.8855138 48.58396,11.7872208 48.8201934,12.1019234 L49.4107769,12.8498582 Z M31.0708875,12.5545664 C29.3784321,12.5545664 28.1782673,11.1768136 28.1782673,9.46494737 C28.1782673,7.7332574 29.3784321,6.39556511 31.0708875,6.39556511 C32.7435191,6.39556511 33.9635077,7.7332574 33.9635077,9.46494737 C33.9635077,11.1768136 32.7435191,12.5545664 31.0708875,12.5545664 L31.0708875,12.5545664 Z M35.5576702,4.74234428 L34.396327,4.74234428 C34.1605065,4.74234428 33.9436839,4.93934311 33.9436839,5.1949873 L33.9436839,5.98215665 C33.3535134,5.09669438 32.212407,4.46687631 30.8544779,4.46687631 C28.296384,4.46687631 26.0926402,6.49385803 26.0926402,9.44512359 C26.0926402,12.4364497 28.296384,14.4436077 30.8346541,14.4436077 C32.212407,14.4436077 33.3336896,13.8137896 33.9436839,12.9287403 L33.9436839,13.7551442 C33.9436839,13.9909646 34.1605065,14.1875505 34.396327,14.1875505 L35.5576702,14.1875505 C35.7934906,14.1875505 35.9904894,13.9909646 35.9904894,13.7551442 L35.9904894,5.1949873 C35.9904894,4.93934311 35.7934906,4.74234428 35.5576702,4.74234428 L35.5576702,4.74234428 Z M90.0222726,13.7154967 C90.1205655,13.9517301 90.0024488,14.1875505 89.70757,14.1875505 L88.4082863,14.1875505 C88.1724659,14.1875505 87.9758801,14.0698468 87.8969979,13.8336134 L85.4966683,7.37932029 L83.0562781,13.8336134 C82.9579852,14.0892575 82.7808102,14.1875505 82.5445768,14.1875505 L81.3840595,14.1875505 C81.1474131,14.1875505 80.9706511,14.0892575 80.8719451,13.8336134 L78.4121442,7.33967273 L75.9919908,13.8336134 C75.8936979,14.0698468 75.7165228,14.1875505 75.4807024,14.1875505 L74.2607138,14.1875505 C74.0240674,14.1875505 73.8473054,14.0698468 73.7485994,13.8336134 L71.3482698,7.33967273 L68.8686451,13.8336134 C68.7707651,14.0892575 68.5931771,14.1875505 68.3573567,14.1875505 L67.1960135,14.1875505 C66.960193,14.1875505 66.783018,14.0892575 66.6847251,13.8336134 L64.2641587,7.33967273 L61.8435923,13.8336134 C61.7651231,14.0698468 61.5681243,14.1875505 61.3323039,14.1875505 L60.0726677,14.1875505 C59.777376,14.1875505 59.6596723,13.9517301 59.7579652,13.7154967 L63.0437571,5.11651817 C63.142463,4.86046098 63.3196381,4.74234428 63.5558715,4.74234428 L64.9724459,4.74234428 C65.2086793,4.74234428 65.3858544,4.86046098 65.4845603,5.11651817 L67.8064207,11.3936362 L70.148105,5.11651817 C70.2463979,4.86046098 70.423573,4.74234428 70.6593934,4.74234428 L72.056557,4.74234428 C72.2927904,4.74234428 72.4699655,4.86046098 72.5682584,5.11651817 L74.8901189,11.3936362 L77.2119794,5.11651817 C77.3102723,4.86046098 77.4874473,4.74234428 77.7236807,4.74234428 L79.1208444,4.74234428 C79.3566648,4.74234428 79.5338399,4.86046098 79.6321328,5.11651817 L81.9936408,11.3936362 L84.2956775,5.11651817 C84.3943834,4.86046098 84.5711455,4.74234428 84.8077919,4.74234428 L86.2243663,4.74234428 C86.4605997,4.74234428 86.6373618,4.86046098 86.7360677,5.11651817 L90.0222726,13.7154967 L90.0222726,13.7154967 Z M10.3087797,11.406439 L9.40555862,9.05195191 C9.32708949,8.85495308 9.16973822,8.67819102 8.81538811,8.67819102 L7.63463409,8.67819102 C7.33934233,8.67819102 7.10352193,8.87477686 7.24146241,9.24853775 L8.4341933,12.3447647 C8.03854365,12.4430576 7.62017925,12.4955081 7.18240406,12.4955081 C4.26996007,12.4955081 2.20374378,10.2128822 2.20374378,7.22196902 C2.20374378,4.2310559 4.26996007,1.94842999 7.18240406,1.94842999 C10.0944351,1.94842999 12.1606513,4.2310559 12.1606513,7.22196902 C12.1606513,8.95861494 11.463102,10.4553105 10.3087797,11.406439 L10.3087797,11.406439 Z M7.18240406,-8.25990922e-05 C3.20732275,-8.25990922e-05 0,3.08953644 0,7.22196902 C0,11.3544016 3.20732275,14.4436077 7.18240406,14.4436077 C7.86219459,14.4436077 8.51844437,14.3510967 9.14124153,14.1805295 L9.917673,16.1947084 C9.99614213,16.411118 10.1534934,16.5490585 10.4487852,16.5490585 L11.6885975,16.5490585 C11.9834763,16.5490585 12.1998859,16.3524727 12.0623584,15.9782988 L11.0513455,13.3425618 C13.0448746,12.0899465 14.3643951,9.87092191 14.3643951,7.22196902 C14.3643951,3.08953644 11.1570724,-8.25990922e-05 7.18240406,-8.25990922e-05 L7.18240406,-8.25990922e-05 Z M24.3018919,4.74234428 C24.5381253,4.74234428 24.7541219,4.93934311 24.7541219,5.1949873 L24.7541219,13.7547312 C24.7541219,13.9909646 24.5381253,14.1875505 24.3018919,14.1875505 L23.1409617,14.1875505 C22.924139,14.1875505 22.7077294,14.0107884 22.7077294,13.774555 L22.7077294,12.9873857 C22.1175589,13.8530241 21.1139799,14.4436077 19.6383472,14.4436077 C17.1785462,14.4436077 15.6632658,12.8102106 15.6632658,10.3900572 L15.6632658,5.17557652 C15.6632658,4.93934311 15.8796755,4.74234428 16.1159089,4.74234428 L17.2768391,4.74234428 C17.5130725,4.74234428 17.7096584,4.93934311 17.7096584,5.17557652 L17.7096584,10.0555309 C17.7096584,11.6298696 18.5360623,12.6726831 20.1694593,12.6726831 C21.7632088,12.6726831 22.7077294,11.590222 22.7077294,10.0749417 L22.7077294,5.17557652 C22.7077294,4.93934311 22.924139,4.74234428 23.1409617,4.74234428 L24.3018919,4.74234428 L24.3018919,4.74234428 Z" id="Fill-1" fill="#3253DC" mask="url(#mask-2)"></path>
        </g>
    </g>
</svg>