<?xml version="1.0" encoding="UTF-8"?>
<svg width="120px" height="50px" viewBox="0 0 120 50" version="1.1" xmlns="http://www.w3.org/2000/svg" xmlns:xlink="http://www.w3.org/1999/xlink">
    <title>logo-brand-samsung</title>
    <defs>
        <polygon id="path-1" points="0 0 96 0 96 14.7034663 0 14.7034663"></polygon>
    </defs>
    <g id="logo-brand-samsung" stroke="none" stroke-width="1" fill="none" fill-rule="evenodd">
        <g id="Group-3" transform="translate(12.000000, 18.000000)">
            <mask id="mask-2" fill="white">
                <use xlink:href="#path-1"></use>
            </mask>
            <g id="Clip-2"></g>
            <path d="M91.1454619,6.45790281 L91.1454619,8.45928911 L92.5520891,8.45928911 L92.5520891,10.4453438 C92.5564948,10.6228023 92.5468024,10.8141826 92.5161393,10.967322 C92.4604522,11.3375706 92.108531,11.9684557 91.1100407,11.9684557 C90.117542,11.9684557 89.771965,11.3375706 89.7118723,10.967322 C89.6868483,10.8141826 89.6760986,10.6228023 89.6760986,10.4453438 L89.6760986,4.1727944 C89.6760986,3.95092724 89.6910777,3.70826554 89.738306,3.52446295 C89.8061526,3.18998808 90.1025629,2.53090691 91.1026393,2.53090691 C92.1524111,2.53090691 92.4144575,3.22593796 92.474374,3.52446295 C92.5142008,3.7221873 92.5161393,4.05384258 92.5161393,4.05384258 L92.5161393,4.81531042 L95.9727909,4.81531042 L95.9727909,4.365232 C95.9727909,4.365232 95.9881224,3.89524017 95.9463571,3.45696881 C95.6866016,0.882499104 93.5653824,0.0679875703 91.1331262,0.0679875703 C88.6966406,0.0679875703 86.6184202,0.890076775 86.3154896,3.45696881 C86.2883509,3.69170039 86.2464094,4.11393528 86.2464094,4.365232 L86.2464094,10.1350118 C86.2464094,10.3864847 86.2545158,10.5808608 86.3012154,11.0402791 C86.526607,13.5439064 88.6966406,14.4311989 91.1234338,14.4311989 C93.5653824,14.4311989 95.7202606,13.5439064 95.9497054,11.0402791 C95.9904134,10.5808608 95.9946428,10.3864847 96.0001057,10.1350118 L96.0001057,6.45790281 L91.1454619,6.45790281 Z M67.3136862,0.437178757 L63.8427604,0.437178757 L63.8427604,10.5900245 C63.8482234,10.7667781 63.8427604,10.965736 63.8122735,11.111474 C63.739845,11.452293 63.4510124,12.1082021 62.4934063,12.1082021 C61.5481358,12.1082021 61.2517255,11.452293 61.1847601,11.111474 C61.1500438,10.965736 61.1458144,10.7667781 61.1500438,10.5900245 L61.1500438,0.437178757 L57.6801753,0.437178757 L57.6801753,10.2749344 C57.6757697,10.528522 57.6956831,11.0466232 57.7106622,11.1823164 C57.9503281,13.745684 59.9705704,14.5779942 62.4934063,14.5779942 C65.0211764,14.5779942 67.0403614,13.745684 67.2842567,11.1823164 C67.3034652,11.0466232 67.3286653,10.528522 67.3136862,10.2749344 L67.3136862,0.437178757 Z M35.4222643,0.437178757 L33.6908545,11.1650464 L31.9605021,0.437178757 L26.3614843,0.437178757 L26.0647215,14.1612223 L29.4949394,14.1612223 L29.5876337,1.45646364 L31.9476377,14.1612223 L35.4277272,14.1612223 L37.7898459,1.45646364 L37.8830689,14.1612223 L41.3217456,14.1612223 L41.0147618,0.437178757 L35.4222643,0.437178757 Z M14.6927519,0.437178757 L12.1505313,14.1612223 L15.8577747,14.1612223 L17.7735157,1.45646364 L19.643262,14.1612223 L23.3246004,14.1612223 L20.7931296,0.437178757 L14.6927519,0.437178757 Z M79.4439517,11.4866568 L76.2119868,0.437178757 L71.1189107,0.437178757 L71.1189107,14.0179514 L74.4881547,14.0179514 L74.2925451,2.61496619 L77.7634709,14.0179514 L82.6478968,14.0179514 L82.6478968,0.437178757 L79.2568008,0.437178757 L79.4439517,11.4866568 Z M48.280691,4.00890523 C48.2197172,3.7376951 48.2373397,3.44991982 48.268884,3.29942374 C48.3670412,2.85991882 48.662218,2.38093951 49.5126794,2.38093951 C50.305339,2.38093951 50.7700441,2.87489794 50.7700441,3.61662858 L50.7700441,4.4558116 L54.1535624,4.4558116 L54.1535624,3.49926279 C54.1535624,0.542208803 51.5024348,0.0776799403 49.5829931,0.0776799403 C47.1655398,0.0776799403 45.1912921,0.874568983 44.830736,3.09940847 C44.7353983,3.70509349 44.7117842,4.24257946 44.8635138,4.92844681 C45.4514001,7.70257935 50.2811962,8.50757473 50.9822189,10.2620699 C51.1059288,10.5944301 51.0705076,11.018251 51.0072428,11.2679617 C50.902389,11.7245605 50.595229,12.1838026 49.6848511,12.1838026 C48.8305128,12.1838026 48.3166409,11.69284 48.3166409,10.9528716 L48.3155836,9.63559038 L44.6737196,9.63559038 L44.6737196,10.682895 C44.6737196,13.7162544 47.04976,14.6317428 49.6092506,14.6317428 C52.0603629,14.6317428 54.0848347,13.7941458 54.4096172,11.5234878 C54.5645189,10.3505348 54.4476818,9.58642363 54.3854744,9.29864835 C53.8180302,6.45296851 48.6703243,5.59722035 48.280691,4.00890523 L48.280691,4.00890523 Z M3.64767941,3.97507005 C3.58124262,3.69857317 3.59675041,3.40656849 3.63375764,3.25431017 C3.7275093,2.81709617 4.02444827,2.32948184 4.8898888,2.32948184 C5.69259327,2.32948184 6.16522848,2.82837456 6.16522848,3.57592063 L6.16522848,4.42532469 L9.58839735,4.42532469 L9.58839735,3.46119821 C9.58839735,0.475772012 6.89673808,-3.52449819e-05 4.95632559,-3.52449819e-05 C2.51860641,-3.52449819e-05 0.526736256,0.809013317 0.162303142,3.05024172 C0.062559843,3.66526666 0.0454660268,4.20662958 0.189618003,4.9000746 C0.7838484,7.70592762 5.66157768,8.5172671 6.37105917,10.2927331 C6.50393275,10.6228023 6.46375347,11.0466232 6.39784536,11.3060263 C6.28523764,11.7673831 5.97561047,12.2329693 5.05747869,12.2329693 C4.2001445,12.2329693 3.68733002,11.7335479 3.68733002,10.9835347 L3.68257194,9.66290524 L0,9.66290524 L0,10.7123246 C0,13.7807527 2.40969942,14.7034663 4.9889272,14.7034663 C7.46841168,14.7034663 9.50486674,13.8582917 9.8370507,11.5615524 C10.0021734,10.3778497 9.87828733,9.60721817 9.82260026,9.3152135 C9.24334898,6.43481734 4.03837004,5.58171255 3.64767941,3.97507005 L3.64767941,3.97507005 Z" id="Fill-1" fill="#1428A0" mask="url(#mask-2)"></path>
        </g>
    </g>
</svg>