<?xml version="1.0" encoding="UTF-8"?>
<svg width="120px" height="50px" viewBox="0 0 120 50" version="1.1" xmlns="http://www.w3.org/2000/svg" xmlns:xlink="http://www.w3.org/1999/xlink">
    <title>logo-brand-mediatek</title>
    <defs>
        <polygon id="path-1" points="0 0 100 0 100 25.0270289 0 25.0270289"></polygon>
    </defs>
    <g id="logo-brand-mediatek" stroke="none" stroke-width="1" fill="none" fill-rule="evenodd">
        <g id="mediatek-seeklogo.com" transform="translate(10.000000, 13.000000)">
            <g id="Group-3">
                <mask id="mask-2" fill="white">
                    <use xlink:href="#path-1"></use>
                </mask>
                <g id="Clip-2"></g>
                <path d="M87.3003846,23.0944595 C86.6707432,24.1647613 85.1402846,25.0403219 83.8987257,25.0403219 L1.37227274,25.0403219 C0.130492193,25.0403219 -0.370872547,24.1647613 0.258547349,23.0944595 L12.6861009,1.94630545 C13.3148562,0.876003616 14.8453147,0 16.0875383,0 L98.6142128,0 C99.8557718,0 100.35758,0.876003616 99.7283813,1.94630545 L87.3003846,23.0944595" id="Fill-1" fill="#EA892D" mask="url(#mask-2)"></path>
            </g>
            <polygon id="Fill-4" fill="#FFFFFE" points="74.5351908 16.3383315 76.8096099 16.3383315 76.8096099 8.24737243 74.5351908 8.24737243"></polygon>
            <polyline id="Fill-5" fill="#FFFFFE" points="80.0807767 12.3026001 80.075681 12.3026001 80.0807767 12.2837685 82.4156786 8.24737243 80.1410379 8.24737243 77.8054714 12.2837685 77.8187643 12.3026001 77.8054714 12.3026001 80.1410379 16.3383315 82.4156786 16.3383315 80.0807767 12.3026001"></polyline>
            <polyline id="Fill-6" fill="#FFFFFE" points="54.9859538 8.24825863 53.1590631 8.24825863 48.4872654 16.3383315 50.7880488 16.3383315 54.1150458 10.5782865 54.1150458 16.3383315 56.4147215 16.3383315 56.4147215 8.24825863 54.9859538 8.24825863"></polyline>
            <polyline id="Fill-7" fill="#FFFFFE" points="30.0665975 12.9661385 33.647711 12.9661385 34.4229099 11.6390617 30.7906187 11.6390617 30.0665975 12.9661385"></polyline>
            <path d="M29.3346006,11.3162652 L29.3368161,11.3167083 C29.3368161,10.2940395 29.6423318,9.91009553 30.6368639,9.91009553 L33.8734691,9.91009553 L34.8418585,8.23297177 L30.2974513,8.23297177 C28.3622233,8.23297177 27.0834441,8.91135393 27.0834441,11.3632335 L27.0834441,16.354283 L34.0757431,16.354283 L35.0434679,14.6773808 L29.3346006,14.6773808 L29.3346006,11.3162652" id="Fill-8" fill="#FFFFFE"></path>
            <polyline id="Fill-9" fill="#FFFFFE" points="68.6386718 12.9661385 72.2202283 12.9661385 72.9956488 11.6390617 69.362693 11.6390617 68.6386718 12.9661385"></polyline>
            <path d="M67.9855462,11.3162652 L67.9875401,11.3167083 C67.9875401,10.2940395 68.293942,9.91009553 69.2889172,9.91009553 L72.5248578,9.91009553 L73.4934687,8.23297177 L68.9490615,8.23297177 C67.013612,8.23297177 65.7348328,8.91135393 65.7348328,11.3632335 L65.7348328,16.354283 L72.7266886,16.354283 L73.6950781,14.6773808 L67.9855462,14.6773808 L67.9855462,11.3162652" id="Fill-10" fill="#FFFFFE"></path>
            <polyline id="Fill-11" fill="#FFFFFE" points="57.4187802 9.93114266 60.2488435 9.93114266 60.2488435 16.3383315 62.4751865 16.3383315 62.4751865 9.93114266 64.569265 9.93114266 65.5405346 8.24825863 58.3913791 8.24825863 57.4187802 9.93114266"></polyline>
            <path d="M40.2157441,8.23297177 L36.3149359,8.23297177 L36.3149359,16.354283 L40.3196505,16.354283 C43.132433,16.354283 44.3983623,15.2691374 44.3983623,12.2297106 C44.3983623,9.35533755 43.1450612,8.23297177 40.2157441,8.23297177 M39.730774,14.6802609 L38.4958615,14.6802609 L38.4958615,9.90610765 L39.730774,9.90610765 C41.5290849,9.90610765 42.0931479,10.2231439 42.0931479,12.2319261 C42.0931479,14.2409298 41.5290849,14.6802609 39.730774,14.6802609" id="Fill-12" fill="#FFFFFE"></path>
            <polygon id="Fill-13" fill="#FFFFFE" points="45.668058 16.338553 47.9426986 16.338553 47.9426986 8.24825863 45.668058 8.24825863"></polygon>
            <polyline id="Fill-14" fill="#FFFFFE" points="20.7493664 12.3599812 20.7493664 8.24825863 18.0444781 8.25623438 13.3788837 16.3299126 15.6101008 16.3299126 18.4747257 11.3740894 18.4747257 16.2966803 18.4552294 16.3299126 18.4747257 16.3299126 18.4747257 16.3383315 20.7493664 16.3383315 23.5508499 11.3740894 23.5508499 16.3383315 25.8259336 16.3383315 25.8259336 8.24825863 23.1208238 8.25623438 20.7493664 12.3599812"></polyline>
        </g>
    </g>
</svg>