<?xml version="1.0" encoding="UTF-8"?>
<svg width="60px" height="50px" viewBox="0 0 60 50" version="1.1" xmlns="http://www.w3.org/2000/svg" xmlns:xlink="http://www.w3.org/1999/xlink">
    <title>logo-brand-lg</title>
    <g id="logo-brand-lg" stroke="none" stroke-width="1" fill="none" fill-rule="evenodd">
        <g id="lg-chem-seeklogo.com" transform="translate(6.000000, 15.000000)" fill-rule="nonzero">
            <path d="M10.4450292,20.8735733 C16.2088476,20.8735733 20.8900584,16.2061452 20.8900584,10.4390838 C20.8903286,4.67175212 16.2091179,0 10.4450292,0 C4.67229261,0 0,4.67175212 0,10.4388135 C0,16.2058749 4.67229261,20.8735733 10.4450292,20.8735733" id="Path" fill="#A50034"></path>
            <polygon id="Path" fill="#FFFFFF" points="10.025066 5.85786423 10.025066 15.0157091 12.9364321 15.0157091 12.9364321 14.1922679 10.8641816 14.1922679 10.8641816 5.85786423"></polygon>
            <path d="M7.1099165,8.35656384 C7.80255841,8.35656384 8.36088778,7.79337003 8.36088778,7.10559256 C8.36088778,6.41727459 7.80255841,5.85191881 7.1099165,5.85191881 C6.41727459,5.85191881 5.85894522,6.41727459 5.85894522,7.10559256 C5.85894522,7.79391052 6.41727459,8.35656384 7.1099165,8.35656384" id="Path" fill="#FFFFFF"></path>
            <path d="M10.8636411,1.70363426 C10.7544615,1.69822932 10.5469121,1.69147316 10.4477316,1.69147316 C5.62653319,1.69147316 1.70282352,5.61653406 1.70282352,10.4347598 C1.70282352,12.7750949 2.61220316,14.9686862 4.25962613,16.6182711 C5.91326478,18.2640726 8.10793701,19.1734523 10.4477316,19.1734523 C12.7786081,19.1734523 14.9727399,18.2640726 16.6239463,16.6182711 C18.2748825,14.9686862 19.1885861,12.7750949 19.1885861,10.4347598 L19.1885861,10.045875 L18.8348333,10.045875 L12.9442693,10.045875 L12.9442693,10.8509395 L18.355416,10.8509395 C18.355416,10.8682353 18.355416,10.9539034 18.3516325,10.9760637 C18.077062,15.0948913 14.6365532,18.3573077 10.4477316,18.3573077 C8.32737721,18.3573077 6.33917334,17.5327855 4.84281819,16.0353493 C3.3415986,14.5441289 2.51464415,12.5575465 2.51464415,10.4344896 C2.51464415,8.32359376 3.34186885,6.326742 4.84281819,4.83092734 C6.33917334,3.33646391 8.32764746,2.51194169 10.4477316,2.51194169 C10.539075,2.51194169 10.7612176,2.51194169 10.8636411,2.51734662 L10.8636411,1.70363426 Z" id="Path" fill="#FFFFFF"></path>
            <path d="M28.7453149,3.5140159 L25.6069417,3.5140159 L25.6069417,17.1012017 L35.2471766,17.1012017 L35.2471766,14.4562987 L28.7453149,14.4562987 L28.7453149,3.5140159 L28.7453149,3.5140159 Z M42.1517057,11.9232778 L44.7079679,11.9232778 L44.7079679,14.2990152 C44.2366579,14.478459 43.3175494,14.6573622 42.4430315,14.6573622 C39.6181443,14.6573622 38.6768756,13.2226232 38.6768756,10.3085547 C38.6768756,7.52933915 39.5730132,5.89110456 42.3981706,5.89110456 C43.9680328,5.89110456 44.8647109,6.38457476 45.6035649,7.32638399 L47.5550153,5.53221714 C46.3664709,3.82966387 44.2809783,3.31403345 42.3311495,3.31403345 C37.9358596,3.31403345 35.6271433,5.71274183 35.6271433,10.285854 C35.6271433,14.8368059 37.7120954,17.3028057 42.3089892,17.3028057 C44.4161016,17.3028057 46.4788935,16.765015 47.5993357,15.9804893 L47.5993357,9.38917591 L42.1517057,9.38917591 L42.1517057,11.9232778 L42.1517057,11.9232778 Z" id="Shape" fill="#6B6B6B"></path>
        </g>
    </g>
</svg>