<?xml version="1.0" encoding="UTF-8"?>
<svg width="80px" height="50px" viewBox="0 0 80 50" version="1.1" xmlns="http://www.w3.org/2000/svg" xmlns:xlink="http://www.w3.org/1999/xlink">
    <title>logo-brand-vivo</title>
    <g id="logo-brand-vivo" stroke="none" stroke-width="1" fill="none" fill-rule="evenodd">
        <path d="M57.8201848,21.8985667 C58.3911848,21.7895667 62.3391848,21.8505667 63.2471848,21.8505667 C64.0591848,21.8505667 65.1381848,21.7765667 65.8851848,21.9695667 C69.7371848,22.9585667 69.7101848,29.0015667 65.5331848,29.7165667 C64.9171848,29.8245667 61.0371848,29.7625667 60.0941848,29.7625667 C59.3081848,29.7625667 58.1541848,29.8365667 57.4571848,29.6495667 C55.1971848,29.0375667 54.1281848,26.5905667 54.8411848,24.4205667 C55.2571848,23.1475667 56.3181848,22.1835667 57.8201848,21.8985667 Z M71.1321848,26.5575667 C71.4051848,24.0165667 70.3101848,21.9955667 68.9391848,20.8645667 C68.2141848,20.2655667 67.4181848,19.8165667 66.2791848,19.5485667 C65.2941848,19.3185667 63.5781848,19.4155667 62.4571848,19.4155667 C61.1331848,19.4155667 59.8071848,19.4165667 58.4801848,19.4145667 C57.1961848,19.4135667 56.2351848,19.7045667 55.3091848,20.2365667 C51.4031848,22.4815667 51.1851848,27.9895667 54.4071848,30.7465667 C56.4061848,32.4555667 58.3441848,32.2085667 60.8811848,32.2085667 C62.2091848,32.2085667 63.5331848,32.2105667 64.8591848,32.2085667 C68.0611848,32.2045667 70.7681848,29.9465667 71.1321848,26.5575667 Z M33.4681848,21.1545667 C33.5381848,21.5705667 34.2011848,22.4455667 34.4411848,22.7945667 L37.5881848,27.4155667 C38.2021848,28.3235667 39.0491848,29.6265667 39.6831848,30.4985667 C40.3221848,31.3765667 41.4221848,32.3385667 43.1001848,32.2615667 C44.6771848,32.1905667 45.5531848,31.1945667 46.2301848,30.2165667 C46.9141848,29.2235667 47.6031848,28.1775667 48.3241848,27.1325667 L52.0021848,21.7285667 C52.7421848,20.6285667 51.8111848,19.4245667 50.7331848,19.6355667 C50.0551848,19.7675667 49.7611848,20.3715667 49.4131848,20.9035667 L47.3191848,23.9885667 C46.6251848,24.9945667 45.9281848,26.0605667 45.2241848,27.0705667 C44.8661848,27.5855667 44.5411848,28.0835667 44.1781848,28.6135667 C43.8871848,29.0385667 43.4161848,29.8165667 42.6271848,29.6255667 C42.0381848,29.4825667 41.6321848,28.7505667 41.3411848,28.3155667 C40.9901848,27.7915667 40.6611848,27.3115667 40.2951848,26.7735667 C39.5981848,25.7495667 38.9301848,24.7755667 38.2001848,23.6895667 C37.4951848,22.6365667 36.8391848,21.6745667 36.1061848,20.6085667 C35.7761848,20.1325667 35.4131848,19.4705667 34.5211848,19.6325667 C33.8831848,19.7465667 33.3301848,20.3635667 33.4681848,21.1545667 Z M9.0131848,21.1185667 C9.0761848,21.5725667 9.7421848,22.4155667 9.9771848,22.7635667 L14.1661848,28.9265667 C15.2041848,30.4835667 16.2151848,32.3505667 18.5981848,32.2655667 C20.7971848,32.1865667 21.7041848,30.3425667 22.8271848,28.6825667 L25.9661848,24.0615667 C26.3001848,23.5575667 26.6571848,23.0415667 27.0181848,22.5225667 C27.4141848,21.9465667 27.9071848,21.3845667 27.8171848,20.7455667 C27.7231848,20.0885667 27.1181848,19.5125667 26.3341848,19.6255667 C25.6491848,19.7235667 25.3561848,20.3095667 24.9881848,20.8675667 C24.2741848,21.9425667 23.6211848,22.8775667 22.8981848,23.9515667 C22.1951848,24.9905667 21.5201848,26.0085667 20.8021848,27.0345667 C20.4341848,27.5615667 20.1181848,28.0475667 19.7521848,28.5765667 C19.4481848,29.0185667 19.0241848,29.7785667 18.2281848,29.6345667 C17.5981848,29.5205667 17.2421848,28.8055667 16.9071848,28.3265667 C15.1751848,25.8585667 13.3761848,23.1435667 11.6701848,20.6205667 C11.3231848,20.1065667 10.9661848,19.4945667 10.0901848,19.6265667 C9.4561848,19.7215667 8.9071848,20.3365667 9.0131848,21.1185667 Z M30.4101848,19.6405667 C29.1231848,19.9095667 29.3291848,21.0095667 29.3291848,22.3555667 L29.3291848,30.0115667 C29.3291848,30.6495667 29.2391848,31.2335667 29.5541848,31.6995667 C30.1581848,32.5985667 31.5721848,32.3845667 31.8841848,31.3605667 C32.0061848,30.9615667 31.9421848,26.3255667 31.9421848,25.6955667 C31.9421848,24.4205667 31.9411848,23.1455667 31.9411848,21.8685667 C31.9411848,21.2215667 32.0301848,20.6595667 31.7231848,20.1875667 C31.4951848,19.8425667 31.0031848,19.5165667 30.4101848,19.6405667 Z M30.4671848,15.0395667 C30.2451848,15.1285667 30.1051848,15.3235667 29.9531848,15.4745667 L29.0121848,16.4095667 C28.3991848,17.0285667 28.9021848,17.2715667 29.6681848,18.0415667 C29.8341848,18.2085667 29.9711848,18.3415667 30.1391848,18.5085667 C30.7511848,19.1225667 30.9741848,18.6715667 31.7821848,17.8685667 C32.8961848,16.7575667 32.8621848,16.9875667 31.1271848,15.2685667 C30.9811848,15.1225667 30.7861848,14.9115667 30.4671848,15.0395667 L30.4671848,15.0395667 Z" id="vivo-seeklogo.com" fill="#0067A5"></path>
    </g>
</svg>