<?xml version="1.0" encoding="UTF-8"?>
<svg width="70px" height="50px" viewBox="0 0 70 50" version="1.1" xmlns="http://www.w3.org/2000/svg" xmlns:xlink="http://www.w3.org/1999/xlink">
    <title>logo-brand-htc</title>
    <defs>
        <polygon id="path-1" points="0 0 14.7692308 0 14.7692308 12.3076923 0 12.3076923"></polygon>
        <polygon id="path-3" points="0 0 14.1538462 0 14.1538462 16 0 16"></polygon>
    </defs>
    <g id="logo-brand-htc" stroke="none" stroke-width="1" fill="none" fill-rule="evenodd">
        <g id="Group-9" transform="translate(11.000000, 15.000000)">
            <g id="Group-3" transform="translate(33.230769, 3.692308)">
                <mask id="mask-2" fill="white">
                    <use xlink:href="#path-1"></use>
                </mask>
                <g id="Clip-2"></g>
                <path d="M10.7066914,9.796739 C8.1221839,9.81361396 5.67397463,9.83426096 4.99129326,9.77351113 C3.61045562,9.65340117 2.68791323,8.74949927 2.58097768,7.41935591 C2.50856306,6.54662305 2.50856306,5.82338241 2.57700975,5.13528139 C2.70219776,3.84007911 3.78484589,2.60681784 4.99129326,2.54745771 C5.42359861,2.52422983 6.57985174,2.52681071 8.67432056,2.53574451 L14.7692506,2.54745771 L14.7692506,0.0178029853 C14.7692506,0.0178029853 9.91449528,0.012641235 8.45489435,0.00608978264 C6.49593014,-0.00284401602 5.51009936,-0.00423371803 4.88554808,0.0178029853 C3.51125752,0.0708101907 2.36016269,0.560183829 1.46599096,1.46924747 C0.618045547,2.32788479 0.112333601,3.6941604 0.0375382287,5.07711243 C-0.00511695708,5.82338241 -0.0194014844,6.79815911 0.0375382287,7.37826044 C0.178201143,8.86583718 0.659311959,10.0329883 1.46599096,10.8507287 C2.3280225,11.7284248 3.64041345,12.2850997 4.88693686,12.3019747 C5.91026452,12.3148791 14.7692506,12.3019747 14.7692506,12.3019747 L14.7692506,9.77351113 C14.7692506,9.77351113 12.0784028,9.78403316 10.7066914,9.796739" id="Fill-1" fill="#8CC751" mask="url(#mask-2)"></path>
            </g>
            <polygon id="Fill-4" fill="#8CC751" points="17.2307692 4.30769231 17.2307692 6.74867152 23.0743036 6.74867152 23.0743036 16 25.5408882 16 25.5408882 6.74867152 31.3846154 6.74867152 31.3846154 4.30769231"></polygon>
            <g id="Group-8">
                <mask id="mask-4" fill="white">
                    <use xlink:href="#path-3"></use>
                </mask>
                <g id="Clip-7"></g>
                <path d="M14.151033,8.73099329 C14.1335789,7.38865227 13.6694151,6.23703921 12.7700496,5.30611446 C11.8319399,4.33171782 10.4008958,3.92656778 9.46393694,3.87565477 C8.64934852,3.82865815 5.43932928,3.84393205 4.6857343,3.87565477 C3.62410329,3.92147648 2.85056077,4.24516571 2.46273459,4.54065697 C2.45909033,4.54320262 2.45525426,4.54183189 2.45525426,4.53556567 L2.45525426,0 L-1.91803253e-05,0 L-1.91803253e-05,16 L2.4514182,16 C2.4514182,16 2.40289198,9.45062907 2.45774771,8.73725951 C2.55499196,7.47011309 3.49693773,6.47398052 4.69839331,6.3670632 C5.66143745,6.28305674 8.55210427,6.30596759 9.45895006,6.36843394 C10.703945,6.45616096 11.6234498,7.44974788 11.6957596,8.78817252 C11.7195432,9.28124541 11.6948006,16 11.6948006,16 L14.151033,16 C14.151033,16 14.1573625,9.30670191 14.151033,8.73099329" id="Fill-6" fill="#8CC751" mask="url(#mask-4)"></path>
            </g>
        </g>
    </g>
</svg>