<?xml version="1.0" encoding="UTF-8"?>
<svg width="139px" height="25px" viewBox="0 0 139 25" version="1.1" xmlns="http://www.w3.org/2000/svg" xmlns:xlink="http://www.w3.org/1999/xlink">
    <title>Artboard</title>
    <g id="Artboard" stroke="none" stroke-width="1" fill="none" fill-rule="evenodd">
        <g id="Group" transform="translate(58.000000, 8.000000)" fill="#D8D8D8" fill-rule="nonzero">
            <path d="M4.97728201,9.95456401 C4.26624172,9.95456401 3.61208466,9.84079757 3.01481082,9.58482306 C2.41753697,9.32884856 1.90558797,8.98754922 1.45052218,8.53248344 C1.02389801,8.07741766 0.682598675,7.56546865 0.426624172,6.96819481 C0.170649669,6.37092097 0.0568832229,5.7167639 0.0568832229,5.03416523 L0.0568832229,5.00572362 C0.0568832229,4.32312494 0.170649669,3.66896788 0.426624172,3.07169404 C0.682598675,2.4744202 1.02389801,1.96247119 1.45052218,1.50740541 C1.87714636,1.05233962 2.41753697,0.711040287 3.01481082,0.426624172 C3.64052627,0.170649669 4.29468333,0.0284416115 5.03416523,0.0284416115 C5.48923101,0.0284416115 5.88741357,0.0568832229 6.25715452,0.142208057 C6.62689547,0.227532892 6.96819481,0.312857726 7.25261092,0.455065783 C7.56546865,0.568832229 7.82144315,0.739481898 8.07741766,0.910131567 C8.33339216,1.08078124 8.56092505,1.27987252 8.78845794,1.50740541 L7.4517022,3.04325243 C7.08196125,2.70195309 6.68377869,2.44597859 6.31403775,2.24688731 C5.91585518,2.04779603 5.48923101,1.96247119 5.00572362,1.96247119 C4.60754106,1.96247119 4.23780011,2.04779603 3.89650077,2.19000408 C3.55520143,2.33221214 3.27078532,2.55974503 3.01481082,2.84416115 C2.75883631,3.12857726 2.58818664,3.44143499 2.44597859,3.78273432 C2.30377053,4.15247527 2.24688731,4.52221622 2.24688731,4.94884039 L2.24688731,4.97728201 C2.24688731,5.37546457 2.30377053,5.77364713 2.44597859,6.14338808 C2.58818664,6.51312903 2.75883631,6.82598675 3.01481082,7.11040287 C3.24234371,7.39481898 3.55520143,7.59391026 3.89650077,7.76455993 C4.23780011,7.9352096 4.60754106,7.99209282 5.03416523,7.99209282 C5.57455585,7.99209282 6.05806324,7.87832638 6.42780419,7.6792351 C6.79754514,7.48014382 7.1957277,7.1957277 7.56546865,6.85442836 L8.90222439,8.21962571 C8.64624989,8.47560022 8.39027538,8.73157472 8.13430088,8.930666 C7.87832638,9.12975728 7.56546865,9.32884856 7.25261092,9.47105662 C6.9397532,9.61326468 6.59845386,9.72703112 6.22871291,9.81235596 C5.85897196,9.9261224 5.43234779,9.95456401 4.97728201,9.95456401 Z" id="Shape"></path>
            <polygon id="Shape" points="13.0546997 0.19909128 15.1593789 0.19909128 15.1593789 3.98182561 19.0558797 3.98182561 19.0558797 0.19909128 21.1605589 0.19909128 21.1605589 9.78391434 19.0558797 9.78391434 19.0558797 5.9442968 15.1593789 5.9442968 15.1593789 9.78391434 13.0546997 9.78391434 13.0546997 0.19909128"></polygon>
            <polygon id="Shape" points="26.0240745 0.19909128 28.1287537 0.19909128 28.1287537 9.78391434 26.0240745 9.78391434"></polygon>
            <polygon id="Shape" points="32.9922693 0.19909128 35.2675982 0.19909128 37.77046 4.26624172 40.2733218 0.19909128 42.5486508 0.19909128 42.5486508 9.78391434 40.4724131 9.78391434 40.4724131 3.52675982 37.77046 7.62235187 37.7135768 7.62235187 35.0400653 3.55520143 35.0400653 9.78391434 32.9922693 9.78391434"></polygon>
            <polygon id="Shape" points="47.3268415 0.19909128 54.5510108 0.19909128 54.5510108 2.07623764 49.4030791 2.07623764 49.4030791 4.01026722 53.9252953 4.01026722 53.9252953 5.88741357 49.4030791 5.88741357 49.4030791 7.90676799 54.607894 7.90676799 54.607894 9.78391434 47.3268415 9.78391434 47.3268415 0.19909128"></polygon>
            <path d="M58.9879022,0.19909128 L63.3679103,0.19909128 C64.5908996,0.19909128 65.5010312,0.511949006 66.1551883,1.16610607 C66.6955789,1.70649669 66.979995,2.44597859 66.979995,3.35611015 L66.979995,3.38455176 C66.979995,4.15247527 66.7809037,4.80663234 66.4111628,5.29013973 C66.0414218,5.77364713 65.5294728,6.14338808 64.932199,6.37092097 L67.2644111,9.78391434 L64.7899909,9.78391434 L62.7421949,6.71222031 L62.7137533,6.71222031 L61.0925814,6.71222031 L61.0925814,9.78391434 L58.9879022,9.78391434 L58.9879022,0.19909128 L58.9879022,0.19909128 Z M63.2257023,4.86351556 C63.7376513,4.86351556 64.1358339,4.74974911 64.42025,4.49377461 C64.7046661,4.23780011 64.8468741,3.92494238 64.8468741,3.49831821 L64.8468741,3.4698766 C64.8468741,3.01481082 64.7046661,2.67351148 64.42025,2.44597859 C64.1358339,2.21844569 63.7092097,2.10467925 63.1972607,2.10467925 L61.0925814,2.10467925 L61.0925814,4.86351556 L63.2257023,4.86351556 L63.2257023,4.86351556 Z" id="Shape"></path>
            <path d="M74.6307885,0.142208057 L76.5648181,0.142208057 L80.6604101,9.78391434 L78.4419644,9.78391434 L77.5602745,7.62235187 L73.493124,7.62235187 L72.6114341,9.78391434 L70.5351964,9.78391434 L74.6307885,0.142208057 Z M76.8492342,5.77364713 L75.5693617,2.67351148 L74.2894891,5.77364713 L76.8492342,5.77364713 Z" id="Shape"></path>
        </g>
        <g id="Logo-2" fill-rule="nonzero">
            <path d="M38.4553358,6.23486836 L37.9319709,5.89354345 C36.7942212,5.11987365 35.5654515,4.5509988 34.2684169,4.1641639 C33.2444421,3.86834898 31.7881225,3.61804405 31.7881225,2.34376438 L31.6971025,2.45753935 C31.3785326,2.82161926 31.1964927,3.29947413 31.1964927,3.77732901 L31.1964927,3.91385897 L30.6958828,4.1641639 C29.922213,4.5509988 29.3078282,5.18813864 28.9209933,5.96180843 L28.7844633,6.25762335 L26.8957988,8.16904285 L25.7580491,5.25640362 C24.5292794,2.11621444 21.5028652,0.045509988 18.1351261,0.045509988 L1.00061562,0.045509988 L1.00061562,0.045509988 C1.93357038,2.09345945 3.95876484,3.39049411 6.21150925,3.39049411 L6.21150925,3.39049411 C7.14446401,5.43844357 9.16965847,6.73547823 11.4224029,6.73547823 L11.4224029,6.73547823 C12.3553576,8.78342769 14.3805521,10.0804623 16.6332965,10.0804623 L16.6332965,10.0804623 C17.5662513,12.1284118 19.5914457,13.4254465 21.8441901,13.4254465 L33.4264821,13.4254465 L33.4264821,10.1487273 C33.4492371,9.67087246 33.881582,9.32954755 34.3594368,9.42056752 L34.8145367,9.5115875 C35.1103517,9.55709749 35.4061666,9.44332252 35.5882065,9.21577258 L35.6792265,9.07924261 C35.7247365,9.01097763 35.6792265,8.91995765 35.6109615,8.91995765 C35.2241266,8.89720266 34.3594368,8.78342769 34.3139269,8.05526788 C34.2911719,7.71394297 34.4049468,7.46363804 34.6097418,7.28159809 C34.7235168,7.73669797 35.0420867,8.16904285 35.4289216,8.3510828 C36.0433064,8.64689773 36.3618763,8.05526788 36.3618763,8.05526788 C35.8385115,8.23730783 35.0875967,7.82771794 35.0875967,7.03129315 C35.2468816,6.98578316 35.4289216,6.96302817 35.6109615,6.96302817 C36.9079962,6.96302817 37.3858511,8.19179785 37.522381,8.69240771 C37.545136,8.78342769 37.658911,8.78342769 37.704421,8.71516271 L38.5236008,7.55465801 C38.6146207,7.41812805 38.6601307,7.25884309 38.6601307,7.09955813 L38.6601307,6.50792829 C38.6373757,6.43966331 38.5691107,6.30313334 38.4553358,6.23486836 Z" id="Shape" fill="#DDB648"></path>
            <path d="M37.476871,8.7379177 C37.499626,8.82893768 37.613401,8.82893768 37.658911,8.7606727 L38.4780908,7.600168 C38.5691107,7.46363804 38.6146207,7.30435308 38.6146207,7.14506812 L38.6146207,6.55343828 C38.6146207,6.41690831 38.5463557,6.30313334 38.4325808,6.23486836 L37.9092159,5.89354345 C36.7714662,5.11987365 35.5426965,4.5509988 34.2456619,4.1641639 C33.2216871,3.86834898 31.7653675,3.61804405 31.7653675,2.34376438 L31.7653675,2.34376438 L31.6743476,2.45753935 C31.3557776,2.82161926 31.1737377,3.29947413 31.1737377,3.77732901 L31.1737377,3.91385897 C31.9474075,7.66843298 29.5581331,9.26128256 25.4394792,12.1966768 C25.4394792,12.1966768 25.5304992,12.4014717 25.6897841,12.7427966 L33.2899521,11.286477 L33.3582171,10.2169923 C33.3809721,9.73913744 33.813317,9.39781253 34.2911719,9.4888325 L34.7462717,9.57985248 C35.0420867,9.62536247 35.3379016,9.5115875 35.5199415,9.28403756 L35.6109615,9.14750759 C35.6564715,9.07924261 35.6109615,8.98822264 35.5426965,8.98822264 C35.1558616,8.96546764 34.2911719,8.85169267 34.2456619,8.12353286 C34.2229069,7.78220795 34.3366819,7.53190302 34.5414768,7.34986307 C34.6552518,7.80496295 34.9738217,8.23730783 35.3606566,8.41934779 C35.9750414,8.71516271 36.2936113,8.12353286 36.2936113,8.12353286 C35.7702465,8.30557282 35.0193317,7.89598292 35.0193317,7.09955813 C35.1786166,7.05404815 35.3606566,7.03129315 35.5426965,7.03129315 C36.8624862,7.00853816 37.3403411,8.23730783 37.476871,8.7379177 Z" id="Shape" fill="#BE9521"></path>
            <path d="M22.7316349,6.78098822 L11.3996479,6.78098822 L11.3996479,6.78098822 C12.3326026,8.82893768 14.3577971,10.1259723 16.6105415,10.1259723 L24.0514246,10.1259723 L22.7316349,6.78098822 Z" id="Shape" fill="#BE9521"></path>
            <path d="M22.7316349,6.78098822 C21.9352101,4.75579375 20.0010356,3.4360041 17.8165562,3.4360041 L6.18875426,3.4360041 L6.18875426,3.4360041 C7.12170901,5.48395356 9.14690348,6.78098822 11.3996479,6.78098822 L22.7316349,6.78098822 L22.7316349,6.78098822 Z" id="Shape" fill="#D0A52B"></path>
            <path d="M24.0286696,10.1259723 L16.5877865,10.1259723 L16.5877865,10.1259723 C17.5207413,12.1739218 19.5459357,13.4709565 21.7986802,13.4709565 L25.3484592,13.4709565 L24.0286696,10.1259723 Z" id="Shape" fill="#AB820D"></path>
            <path d="M41.504505,16.9752255 C41.276955,16.7249206 40.7308352,16.1788007 39.7751254,15.5416609 C39.4793105,14.9045211 39.0014556,14.3811562 38.4098258,14.0170763 L39.3655355,12.8565716 C39.3655355,12.8565716 34.4049468,7.37261806 25.4394792,12.1739218 C19.6824657,12.3559618 14.3122871,14.5176862 10.0798582,16.9069606 C10.0115933,16.9069606 9.92057328,16.8842056 9.85230829,16.8842056 C9.57924837,16.8614506 9.26067845,16.8159406 8.87384355,16.7476756 C8.50976365,16.6794106 8.07741876,16.6111456 7.64507387,16.4746157 C7.44027893,16.4063507 7.21272899,16.3380857 7.00793404,16.2470657 C6.75762911,16.1332908 6.57558916,15.9740058 6.53007917,15.8829858 C6.48456918,15.7919658 6.66660913,15.6326809 6.68936413,15.5871709 C6.7803841,15.4961509 6.87140408,15.4278859 6.96242405,15.336866 C7.167219,15.177581 7.41752393,15.0182961 7.69058386,14.8590111 C7.9408888,14.6997261 8.23670372,14.5631962 8.50976365,14.4039112 C8.78282358,14.2446263 9.0786385,14.0853413 9.37445342,13.8805463 C9.51098338,13.7895264 9.67026834,13.6757514 9.80679831,13.5392214 C9.87506329,13.4709565 9.96608326,13.3799365 10.0343482,13.2889165 C10.1026132,13.1978965 10.1708782,13.0613666 10.2163882,12.9020816 C10.2163882,12.8565716 10.2391432,12.8110616 10.2391432,12.7883066 C10.2391432,12.7427966 10.2391432,12.6972867 10.2391432,12.6517767 C10.2391432,12.6062667 10.2391432,12.5607567 10.2163882,12.5152467 L10.2163882,12.4924917 L10.2163882,12.4697367 C10.2163882,12.4697367 10.2163882,12.4469817 10.2163882,12.4469817 L10.2163882,12.4242267 L10.1936332,12.3787167 C10.1708782,12.3559618 10.1708782,12.3332068 10.1708782,12.3104518 C10.1708782,12.2876968 10.1481232,12.2649418 10.1481232,12.2421868 C10.1253682,12.1966768 10.1026132,12.1739218 10.0798582,12.1511668 C10.0343482,12.0829018 9.98883826,12.0373918 9.94332827,12.0146368 C9.76128832,11.8553519 9.57924837,11.7870869 9.39720841,11.6960669 C9.0558835,11.559537 8.71455859,11.491272 8.37323368,11.423007 C7.69058386,11.331987 7.05344403,11.309232 6.4163042,11.354742 C5.77916437,11.400252 5.18753452,11.468517 4.61865967,11.6050469 C4.04978482,11.7188219 3.52641996,11.8781069 3.07132008,12.0373918 C2.11561033,12.3559618 1.36469553,12.7200417 0.864085658,12.9931016 C0.613780724,13.1296315 0.408985777,13.2434065 0.272455813,13.3344265 C0.135925849,13.4254465 0.0676608672,13.4482015 0.0676608672,13.4482015 C0.0676608672,13.4482015 0.454495765,14.7679911 1.27367555,14.2673812 C2.2066303,13.7212614 2.02459035,13.2434065 3.29887002,12.7427966 C3.7312149,12.5607567 4.23182477,12.4697367 4.77794463,12.3559618 C5.30130949,12.2649418 5.87018434,12.1739218 6.46181419,12.1739218 C7.05344403,12.1511668 7.64507387,12.1739218 8.23670372,12.2876968 C8.53251864,12.3332068 8.80557857,12.4242267 9.0558835,12.5380017 C9.10139349,12.5607567 9.14690348,12.5835117 9.19241347,12.6062667 C9.28343344,12.6517767 9.30618844,12.7883066 9.21516846,12.8565716 C9.21516846,12.8565716 9.21516846,12.8565716 9.21516846,12.8565716 C9.12414849,12.9248366 9.01037352,13.0158566 8.89659855,13.0841216 C8.64629361,13.2434065 8.37323368,13.3799365 8.10017375,13.5164664 C7.82711383,13.6529964 7.5312989,13.7895264 7.25823898,13.9488113 C6.96242405,14.1080963 6.68936413,14.2673812 6.4163042,14.4494212 C6.27977423,14.5404412 6.14324427,14.6542161 6.00671431,14.7679911 C5.87018434,14.8817661 5.73365438,15.041051 5.61987941,15.223091 C5.55161443,15.314111 5.50610444,15.4278859 5.48334944,15.5416609 L5.46059445,15.6326809 C5.46059445,15.6554359 5.43783946,15.7009459 5.43783946,15.7464559 C5.43783946,15.7919658 5.43783946,15.7919658 5.43783946,15.8147208 L5.43783946,15.8374758 L5.43783946,15.8374758 C5.43783946,15.8602308 5.43783946,15.8147208 5.43783946,15.8829858 L5.43783946,15.9284958 C5.43783946,16.0650258 5.48334944,16.2243107 5.52885943,16.3380857 C5.57436942,16.4518607 5.6426344,16.5656356 5.71089938,16.6566556 C5.84742935,16.8386956 6.00671431,16.9524705 6.14324427,17.0662455 C6.27977423,17.1572655 6.4163042,17.2482855 6.55283416,17.3165504 C6.82589409,17.4530804 7.07619902,17.5441004 7.32650396,17.6351204 C7.69058386,17.7488953 8.03190877,17.8626703 8.3277237,17.9309353 C5.30130949,19.8195998 3.04856508,21.6627543 1.95632537,22.6184641 C1.56949047,22.959789 1.59224547,23.5741738 2.02459035,23.8699887 L2.95754511,24.5526385 L6.96242405,24.5526385 L6.37079421,23.8699887 C6.00671431,23.4376438 5.46059445,23.2328489 4.91447459,23.3238689 L4.39110973,23.3921338 L4.1408048,23.0280539 C4.00427483,22.823259 4.09529481,22.5274441 4.34559974,22.4364241 L5.36957447,22.0723442 L7.82711383,22.3909141 C8.19119373,22.4364241 8.53251864,22.3681591 8.85108856,22.1861192 C10.0115933,21.4807144 13.3110674,19.7513348 17.1794164,19.7513348 C24.5975444,19.7513348 31.4695526,24.5753935 31.4695526,24.5753935 L38.6373757,24.5753935 L37.2038111,22.959789 C36.8852412,22.5957091 36.3846313,22.4591791 35.9295314,22.6184641 L35.2696366,22.846014 C34.7917817,23.005299 34.2456619,22.846014 33.927092,22.4364241 L32.8803622,21.0711245 L33.1306672,20.5705146 C33.790562,19.2962349 35.5426965,19.114195 36.4528963,20.2291897 L36.8852412,20.7753095 C37.0445261,20.9573495 37.3175861,20.9801045 37.476871,20.7980645 L38.5236008,19.7513348 C38.6373757,19.6375598 38.5691107,19.4555199 38.4325808,19.4100099 C38.1367659,19.3417449 37.8181959,19.159705 37.545136,18.9094 C36.9762612,18.3405252 36.8397312,17.5668554 37.2265661,17.1800205 C37.613401,16.7931856 38.3870708,16.9524705 38.9559456,17.4985904 C39.2745156,17.8171603 39.4565555,18.2039952 39.5020655,18.5680751 C39.5020655,18.6590951 39.6158405,18.6818501 39.6613505,18.6363401 L40.0936953,18.2039952 C40.1619603,18.1357302 40.2757353,18.0902202 40.3667553,18.0902202 L40.5715502,18.0902202 C40.6853252,18.0902202 40.7991002,18.0447103 40.8673651,17.9536903 L41.504505,17.2255305 C41.57277,17.1572655 41.57277,17.0434905 41.504505,16.9752255 Z" id="Shape" fill="#D0A52B"></path>
            <path d="M17.1566614,19.7740898 C14.4715721,19.7740898 12.0822977,20.5932696 10.4666931,21.3441844 C10.1481232,21.9130592 9.94332827,22.3909141 9.80679831,22.754994 C9.67026834,23.0963189 9.78404331,23.4831538 10.0798582,23.6879488 L11.3313829,24.5981485 L15.3590168,24.5981485 L14.767387,23.9154987 C14.4033071,23.4831538 13.8571872,23.2783589 13.3110674,23.3693789 L12.7877025,23.4376438 L12.5373976,23.0735639 C12.4008676,22.868769 12.4918876,22.5729541 12.7421925,22.4819341 L13.7661673,22.1178542 L16.2237066,22.4364241 C16.5877865,22.4819341 16.9291114,22.4136691 17.2476813,22.2316292 C17.9985962,21.7765293 19.6142007,20.9118395 21.6849052,20.3429647 C20.2285856,19.9788847 18.704001,19.7740898 17.1566614,19.7740898 Z" id="Shape" fill="#8A6600"></path>
            <path d="M26.9868188,15.268601 C14.767387,15.268601 8.3049687,20.9801045 6.96242405,22.2998941 L7.78160384,22.4136691 C8.14568374,22.4591791 8.48700865,22.3909141 8.80557857,22.2088742 C9.96608326,21.5034693 13.2655574,19.7740898 17.1339064,19.7740898 C19.4776708,19.7740898 21.7531702,20.2519447 23.8011196,20.9118395 C23.7556096,21.2076544 23.6190797,21.4807144 23.3687747,21.7082643 L21.7759252,23.0735639 C21.6849052,23.1418289 21.5938852,23.1873389 21.5028652,23.2100939 L21.2525603,23.2783589 C21.0705203,23.3238689 21.0250104,23.5286638 21.1615403,23.6424388 L22.20827,24.5981485 L22.52684,24.4161086 C23.3687747,23.9382537 24.2562195,23.5514188 25.1891743,23.3238689 L26.144884,23.0735639 C26.6227389,22.937034 27.0323288,22.686729 27.3736537,22.3454041 C29.853948,23.5059088 31.4467976,24.6209035 31.4467976,24.6209035 L38.6146207,24.6209035 L37.1810561,23.005299 C36.8624862,22.641219 36.3618763,22.5046891 35.9067764,22.663974 L35.2468816,22.891524 C34.7690267,23.0508089 34.2229069,22.891524 33.904337,22.4819341 L32.8576072,21.1166344 L33.1079122,20.6160246 C33.767807,19.3417449 35.5199415,19.159705 36.4301413,20.2746997 L36.8624862,20.8208195 C37.0217711,21.0028595 37.2948311,21.0256145 37.454116,20.8435745 L38.5008458,19.7968448 C38.6146207,19.6830698 38.5463557,19.5010299 38.4098258,19.4555199 C38.1140109,19.3872549 37.7954409,19.2052149 37.522381,18.95491 C36.9535062,18.3860352 36.8169762,17.6123654 37.2038111,17.2255305 C37.590646,16.8386956 38.3643158,16.9979805 38.9331906,17.5441004 C39.2517606,17.8626703 39.4338005,18.2495052 39.4793105,18.6135851 C39.4793105,18.7046051 39.5930855,18.7273601 39.6385955,18.6818501 L40.0709403,18.2495052 C40.1392053,18.1812402 40.2529803,18.1357302 40.3440003,18.1357302 L40.5487952,18.1357302 C40.6625702,18.1357302 40.7763452,18.0902202 40.8446101,17.9992003 L41.367975,17.3848154 C40.5260402,16.6794106 37.499626,15.268601 26.9868188,15.268601 Z" id="Shape" fill="#BE9521"></path>
            <path d="M27.1916137,18.2495052 C27.7832436,18.7501151 28.1700785,19.5237849 28.1700785,20.3657196 C28.1700785,21.1166344 27.8742636,21.8220393 27.3736537,22.3226491 C29.853948,23.4831538 31.4467976,24.5981485 31.4467976,24.5981485 L33.699542,24.5981485 C32.6755673,22.823259 30.1952729,18.977665 27.1916137,18.2495052 Z" id="Shape" fill="#AB820D"></path>
            <path d="M8.80557857,22.2088742 C9.96608326,21.5034693 13.2655574,19.7740898 17.1339064,19.7740898 C19.4776708,19.7740898 21.7531702,20.2519447 23.8011196,20.9118395 C23.7556096,21.2076544 23.6190797,21.4807144 23.3687747,21.7082643 L21.7759252,23.0735639 C21.6849052,23.1418289 21.5938852,23.1873389 21.5028652,23.2100939 L21.2525603,23.2783589 C21.0705203,23.3238689 21.0250104,23.5286638 21.1615403,23.6424388 L22.20827,24.5981485 L22.52684,24.4161086 C23.3687747,23.9382537 24.2562195,23.5514188 25.1891743,23.3238689 L26.144884,23.0735639 C26.167639,23.0735639 26.167639,23.0735639 26.190394,23.0508089 C26.7137589,22.2998941 27.0550838,20.8890845 26.281414,19.7968448 C24.6430544,17.4530804 15.5183018,16.3835957 6.98517905,22.3226491 L7.80435883,22.4364241 C8.14568374,22.4591791 8.50976365,22.3909141 8.80557857,22.2088742 Z" id="Shape" fill="#AB820D"></path>
        </g>
    </g>
</svg>