<?xml version="1.0" encoding="UTF-8"?>
<svg width="120px" height="50px" viewBox="0 0 120 50" version="1.1" xmlns="http://www.w3.org/2000/svg" xmlns:xlink="http://www.w3.org/1999/xlink">
    <title>logo-brand-huawei</title>
    <g id="logo-brand-huawei" stroke="none" stroke-width="1" fill="none" fill-rule="evenodd">
        <g id="Group" transform="translate(7.000000, 15.000000)" fill-rule="nonzero">
            <g id="g11533" fill="#CF0A2C">
                <path d="M11.1016845,5.9254218e-05 C10.7543136,0.0312417865 9.81559696,0.248082598 9.81559696,0.248082598 L9.81521088,0.248082598 C7.699376,0.803094639 7.19928293,2.75169182 7.19928293,2.75169182 C7.09595963,3.07936024 7.04902475,3.41516871 7.0352214,3.7315418 L7.0352214,4.1621422 C7.06329811,4.82742634 7.20908898,5.32419149 7.20908898,5.32419149 C7.91584908,8.50464683 11.3908658,13.7305874 12.1377121,14.8283977 C12.190698,14.8817265 12.233132,14.8624689 12.233132,14.8624689 C12.3137421,14.8398782 12.3074313,14.7614182 12.3074313,14.7614182 L12.3089639,14.7618108 C13.4592907,3.09306278 11.1016991,5.9254218e-05 11.1016991,5.9254218e-05 L11.1016845,5.9254218e-05 Z M14.9026239,0 C14.9026239,0 12.5347198,3.09469227 13.6859318,14.7702249 L13.6874645,14.7702249 C13.6963685,14.8443445 13.7481867,14.8597876 13.7481867,14.8597876 C13.8252279,14.8900814 13.8647273,14.8149766 13.8647273,14.8149766 L13.8651133,14.8157173 C14.6311119,13.6898798 18.086326,8.49238121 18.7899654,5.32413223 C18.7899654,5.32413223 19.1714692,3.79069232 18.8031754,2.75163257 C18.8031754,2.75163257 18.2801122,0.772860174 16.1616018,0.249941699 C16.1616018,0.249941699 15.5510893,0.0926513769 14.9026684,0 L14.9026239,0 Z M3.98067649,3.50296865 C3.98067649,3.50296865 1.96467776,5.44491455 1.86447742,7.50360607 L1.86528023,7.50360607 L1.86528023,7.8155499 C1.86681289,7.83902939 1.86798062,7.86280514 1.86944029,7.88672903 C1.95628175,9.5467878 3.18683116,10.5292746 3.18683116,10.5292746 C5.16951005,12.4903374 9.97031807,14.9662749 11.0859041,15.5280641 C11.1015298,15.5339895 11.159167,15.553099 11.1930159,15.5096953 C11.1930159,15.5096953 11.2106268,15.4961409 11.2186623,15.4717726 L11.2186623,15.4200733 C11.2178595,15.4171106 11.2163268,15.4141479 11.2148672,15.4108889 L11.2152532,15.4108889 C8.16019013,8.63777625 3.98072101,3.50296865 3.98072101,3.50296865 L3.98067649,3.50296865 Z M22.0187282,3.50296124 C22.0187282,3.50296124 17.8518669,8.62171835 14.7981518,15.3810989 L14.7993196,15.3807063 C14.7993196,15.3807063 14.7632585,15.4590774 14.8215722,15.5096953 C14.8215722,15.5096953 14.8389714,15.5230275 14.863056,15.5284345 L14.9052987,15.5284345 C14.912889,15.5262124 14.921034,15.5232497 14.9290621,15.5176946 L14.9290621,15.5184353 C16.0749362,14.941277 20.8385928,12.4816122 22.8119159,10.5295931 C22.8119159,10.5295931 24.0615804,9.5111538 24.1270458,7.87595217 C24.2713412,5.60483428 22.0187654,3.50296124 22.0187654,3.50296124 L22.0187282,3.50296124 Z M25.7691295,10.2272929 C25.7691295,10.2272929 18.9758759,13.9270522 15.4634494,16.3314847 L15.4638354,16.3318772 L15.4646383,16.3326179 C15.4646383,16.3326179 15.4008946,16.3749847 15.4231472,16.4508967 C15.4231472,16.4508967 15.4564787,16.5121508 15.5049893,16.5121508 L15.5049893,16.5125433 C16.7630907,16.5147468 21.5237812,16.5201723 21.6431397,16.4975816 C21.6431397,16.4975816 22.2587194,16.4726208 23.0193668,16.1760608 C23.0193668,16.1760608 24.7127389,15.6296999 25.5922988,13.6785844 C25.5922988,13.6785844 25.9942051,12.8627427 26,11.7165736 L26,11.6679851 C25.9970807,11.2259709 25.9357235,10.7366495 25.7691835,10.2272929 L25.7691295,10.2272929 Z M0.228390754,10.2445507 C-0.389693079,12.1864151 0.442402107,13.7511264 0.443745731,13.7536521 C1.31089265,15.6130939 2.96613891,16.1764978 2.96613891,16.1764978 C3.73034933,16.49513 4.49473492,16.5171503 4.49473492,16.5171503 C4.61408975,16.5392966 9.24795267,16.5193724 10.4895671,16.513447 C10.5421151,16.5130544 10.5710326,16.4594516 10.5710326,16.4594516 C10.5746818,16.4535261 10.577893,16.4476007 10.5793381,16.4421938 L10.5793381,16.3936053 C10.5690474,16.3610896 10.5416203,16.3381285 10.5416203,16.3381285 L10.5424231,16.337736 C7.0317525,13.934096 0.228445492,10.2446469 0.228445492,10.2446469 L0.228390754,10.2445507 Z M10.3477582,17.1104184 L2.35628249,17.394809 C3.22292363,18.9626682 4.68245109,20.1811646 6.20285618,19.8069371 C7.2520886,19.5407302 9.62906458,17.8581252 10.4137585,17.2895513 L10.4111311,17.2873293 C10.4721452,17.2317044 10.4503524,17.1870489 10.4503524,17.1870489 C10.430282,17.1142403 10.3477677,17.1143144 10.3477677,17.1143144 L10.3477582,17.1104184 Z M15.6407092,17.1163438 L15.6399064,17.1193065 C15.6399064,17.1193065 15.5697475,17.1283428 15.5501427,17.1816716 C15.5501427,17.1816716 15.5330937,17.2545543 15.580314,17.2907512 L15.5795112,17.2914919 C16.3446178,17.8483038 18.6639931,19.4939341 19.7813614,19.8134699 C19.7813614,19.8134699 19.9506347,19.8719094 20.2343225,19.8823529 L20.4047942,19.8823529 C21.1534212,19.8556885 22.4575772,19.4654032 23.6426456,17.3990309 L15.6407092,17.1163438 Z" id="path4252"></path>
            </g>
            <path d="M54.1817151,4.87450267 L54.1817151,11.2211223 C54.1817151,13.0238561 53.2932063,13.9857816 51.6786974,13.9857816 C50.0551115,13.9857816 49.1612755,12.9961122 49.1612755,11.1441892 L49.1612755,4.88145739 L46.9276045,4.88145739 L46.9276045,11.2211223 C46.9276045,14.3404721 48.6486198,16.1280218 51.6492578,16.1280218 C54.6782964,16.1280218 56.4153861,14.3062234 56.4153861,11.1296799 L56.4153861,4.87450267 L54.1817151,4.87450267 Z M62.3998224,4.87446518 L57.5485017,15.9552224 L59.8285375,15.9552224 L60.7649772,13.8092142 L60.832008,13.6483747 L65.8718717,13.6483747 L66.8602975,15.9552224 L69.2023368,15.9552224 L64.396113,4.94007572 L64.3529153,4.87446518 L62.3998224,4.87446518 Z M75.6809619,4.87450267 L73.1810835,12.4987656 L70.7476028,4.88018267 L68.370484,4.88018267 L72.2076838,15.9621584 L74.0573815,15.9621584 L76.5622873,8.6822195 L79.0652938,15.9621584 L80.9306693,15.9621584 L84.7584662,4.88018267 L82.442122,4.88018267 L80.003614,12.4987656 L77.5031025,4.87450267 L75.6809619,4.87450267 Z M97.5397603,4.87450267 L97.5397603,15.9457745 L99.7439954,15.9457745 L99.7439954,4.87450267 L97.5397603,4.87450267 Z M34.3166861,4.87515878 L34.3166861,15.9615585 L36.5509864,15.9615585 L36.5509864,11.4588949 L41.5958551,11.4588949 L41.5958551,15.9615585 L43.8307791,15.9615585 L43.8307791,4.87515878 L41.5958551,4.87515878 L41.5958551,9.34754782 L36.5509864,9.34754782 L36.5509864,4.87515878 L34.3166861,4.87515878 Z M86.559939,4.88265713 L86.559939,15.9539289 L94.875768,15.9539289 L94.875768,13.9352989 L88.7641741,13.9352989 L88.7641741,11.1901729 L92.8281244,11.1901729 L92.8281244,9.17092426 L88.7641741,9.17092426 L88.7641741,6.90130586 L94.6627961,6.90130586 L94.6627961,4.88265713 L86.559939,4.88265713 Z M63.3462795,7.68012166 L64.9391746,11.3919721 L64.9335887,11.3919721 L65.0419552,11.6480219 L61.662632,11.6480219 L61.7696952,11.3919721 L61.7678332,11.3919721 L63.3462795,7.68012166 Z" id="path4250" fill="#232527"></path>
        </g>
    </g>
</svg>