<?xml version="1.0" encoding="UTF-8"?>
<svg width="80px" height="50px" viewBox="0 0 80 50" version="1.1" xmlns="http://www.w3.org/2000/svg" xmlns:xlink="http://www.w3.org/1999/xlink">
    <title>logo-brand-oppo</title>
    <g id="logo-brand-oppo" stroke="none" stroke-width="1" fill="none" fill-rule="evenodd">
        <g id="oppo-seeklogo.com" transform="translate(5.000000, 19.000000)" fill="#006B33" fill-rule="nonzero">
            <path d="M17.7978741,8.61198203 L17.7978741,0.582810233 L19.0498805,0.582810233 L20.3018869,0.582810233 L20.3018869,1.11355194 C20.3018869,1.40545976 20.3063456,1.64429364 20.3117908,1.64429364 C20.3172351,1.64429364 20.4752906,1.54808799 20.6630187,1.43050226 C22.8775939,0.0433802333 26.0968685,-0.374314276 28.9842786,0.350835777 C31.5856015,1.00413823 33.4713897,2.55497836 34.1417793,4.59227858 C34.5335294,5.78279606 34.5119272,7.10676034 34.0819633,8.25815396 C33.5471172,9.69041727 32.4475975,10.8419681 30.8616859,11.6308219 C29.4738426,12.3211546 27.889328,12.6668318 26.1128292,12.6668318 C24.640075,12.6668318 23.2665428,12.4212715 22.057417,11.9418022 C21.5776434,11.7515522 20.9626714,11.4392539 20.5896035,11.1964087 L20.3018869,11.0091226 L20.3018869,13.8251373 L20.3018869,16.6411527 L19.0498805,16.6411527 L17.7978741,16.6411527 L17.7978741,8.61198203 Z M27.3240091,10.5322488 C28.7324533,10.3324665 29.8252238,9.88560942 30.6445473,9.17440898 C31.2647666,8.63603813 31.6967033,7.88832839 31.8603299,7.0698169 C31.9272494,6.73506131 31.9274403,5.9444866 31.860721,5.61070725 C31.6680617,4.64744187 31.1160714,3.80599131 30.2897367,3.2159123 C29.9566481,2.978057 29.2800859,2.63920015 28.8482282,2.49393265 C27.6286869,2.08370615 26.1500754,1.96222332 24.7958159,2.16098638 C22.4444854,2.5060886 20.8552649,3.67223207 20.4288774,5.36537298 C20.2407551,6.11238653 20.2743483,6.91883125 20.5229484,7.62366977 C21.0876343,9.22468721 22.7527326,10.2900896 25.1058176,10.5559904 C25.5788858,10.6094477 26.8778123,10.5955458 27.3240467,10.5322488 L27.3240091,10.5322488 Z M35.625355,8.61198203 L35.625355,0.582810233 L36.8773614,0.582810233 L38.1293678,0.582810233 L38.1293678,1.11355194 C38.1293678,1.40545976 38.1348044,1.64429364 38.1414416,1.64429364 C38.1480828,1.64429364 38.2858713,1.55801143 38.4476393,1.45255584 C38.8219479,1.20854668 39.5608301,0.843595225 40.0345953,0.668723221 C42.0797609,-0.0861721414 44.5768744,-0.207914671 46.7621666,0.340731634 C50.3243946,1.23507387 52.4221633,3.68529854 52.2241152,6.7203631 C52.072941,9.03712186 50.5313649,10.9401513 47.9957224,11.9401869 C47.1685844,12.266402 46.3209299,12.4721184 45.2600887,12.6040941 C44.7001994,12.6737476 43.1911619,12.6736427 42.6066517,12.6039377 C40.9523483,12.4065764 39.4999119,11.915329 38.3675211,11.1701662 L38.1293678,11.0134515 L38.1293678,13.8273166 L38.1293678,16.6411817 L36.8773614,16.6411817 L35.625355,16.6411817 L35.625355,8.61197577 L35.625355,8.61198203 Z M45.2120469,10.5204495 C47.1627411,10.2291354 48.5373896,9.44329012 49.2596962,8.20652795 C49.6792298,7.48818961 49.8363294,6.53252475 49.6807379,5.64527113 C49.3573232,3.80101081 47.7365191,2.52484975 45.2550504,2.16064767 C43.6172084,1.9202634 41.7679788,2.15970117 40.510902,2.77492437 C39.2276742,3.40294338 38.4553905,4.34065436 38.1917613,5.5908361 C38.1225608,5.9190037 38.122765,6.76271023 38.1921524,7.08439074 C38.3788565,7.95030652 38.8008557,8.66674716 39.4413662,9.20521031 C40.323285,9.94662227 41.4710858,10.3880921 42.9605079,10.5587525 C43.4531484,10.6152002 44.7221653,10.5936113 45.2120751,10.5204495 L45.2120469,10.5204495 Z M7.45521282,12.6502421 C6.12696345,12.5329302 4.99324836,12.2712574 4.02918229,11.8594805 C1.83643376,10.9229006 0.451481657,9.34216499 0.0756234797,7.34702572 C0.00383532814,6.9659602 -0.0235468458,6.10748348 0.0230024588,5.69725228 C0.294417257,3.30528121 2.05647442,1.4106585 4.84232999,0.515347846 C6.32483241,0.0389058429 8.14969375,-0.116730976 9.78763117,0.0935778869 C12.7885485,0.478891734 15.0585373,1.87043418 16.0562732,3.93636503 C16.8686551,5.6184991 16.7655658,7.66179595 15.7890637,9.23261517 C15.3491435,9.9402799 14.6248829,10.6705395 13.8785499,11.1589576 C12.7174221,11.9188248 11.3305848,12.3915488 9.64622401,12.6016082 C9.30883698,12.6436847 7.76816749,12.6778832 7.45521282,12.6502421 L7.45521282,12.6502421 Z M9.23144645,10.5585304 C10.5376493,10.4199072 11.6364618,10.047027 12.4632384,9.46182677 C13.1391193,8.98343152 13.6739576,8.27836773 13.9139437,7.54939567 C14.0544161,7.12270544 14.0822864,6.9223654 14.0822864,6.33931791 C14.0822864,5.75798587 14.0548228,5.55931043 13.9154393,5.13231982 C13.4573149,3.72889334 12.1173297,2.68496878 10.2450093,2.27284536 C8.60343995,1.91151252 6.68904231,2.03710131 5.27063006,2.59917469 C4.2473448,3.0046718 3.43962817,3.66107738 2.96596076,4.47210835 C2.4622852,5.33452003 2.3480185,6.50917813 2.66932823,7.52146827 C3.0155248,8.61216272 3.92752133,9.52498764 5.18254949,10.0369721 C5.86612917,10.3158369 6.71252269,10.5101373 7.55047432,10.5805605 C7.87198195,10.6075812 8.89567631,10.5941651 9.23144645,10.5585304 L9.23144645,10.5585304 Z M60.8832222,12.6511793 C60.8308288,12.6452108 60.6471104,12.6269863 60.4749598,12.6106712 C59.0927174,12.4796732 57.6395872,12.0431753 56.5742599,11.4389613 C55.1340748,10.6221387 54.1309455,9.46117517 53.6730292,8.08123954 C53.3631283,7.1473451 53.3102148,6.09782521 53.5243535,5.13226741 C53.8481554,3.67224536 54.7369164,2.43246611 56.1170843,1.51552585 C57.9371725,0.306319504 60.6133225,-0.230734062 63.1967127,0.0947754903 C65.3430105,0.365211712 67.1112951,1.15020439 68.3417141,2.3787875 C69.2787625,3.31443963 69.8174963,4.41079903 69.973216,5.69899198 C70.0136811,6.03376633 70.0073841,6.71078149 69.9604891,7.06599255 C69.6228056,9.62403515 67.5950299,11.5791059 64.4895448,12.3407723 C63.5479711,12.5717064 62.9569339,12.6416133 61.8494448,12.6530386 C61.370416,12.6579824 60.9356163,12.6571454 60.8832222,12.6511769 L60.8832222,12.6511793 Z M62.5298831,10.571273 C64.1832172,10.4191742 65.5307761,9.87430533 66.3958635,9.00811185 C66.9815956,8.42163192 67.3215836,7.77601493 67.4555728,6.99577747 C67.5107885,6.67424089 67.5100024,6.00401085 67.454024,5.67048025 C67.1526472,3.87508465 65.5696564,2.57369961 63.223933,2.19290318 C62.660748,2.10147699 62.2861993,2.071691 61.6997515,2.071691 C59.0698605,2.071691 57.0293054,3.06329413 56.2444988,4.72266091 C56.0105719,5.2172644 55.9026351,5.72768752 55.9026351,6.33931791 C55.9026351,7.14637512 56.0907331,7.78644527 56.5153293,8.42423755 C57.29479,9.59508147 58.7730261,10.3430986 60.7295253,10.5567077 C61.1330637,10.6007656 62.1223037,10.6087687 62.5298862,10.571273 L62.5298831,10.571273 Z" id="path1460"></path>
        </g>
    </g>
</svg>